<svg width="2353" height="2003" xmlns="http://www.w3.org/2000/svg" xmlns:xlink="http://www.w3.org/1999/xlink" xml:space="preserve" overflow="hidden"><defs><filter id="fx0" x="-10%" y="-10%" width="120%" height="120%" filterUnits="userSpaceOnUse" primitiveUnits="userSpaceOnUse"><feComponentTransfer color-interpolation-filters="sRGB"><feFuncR type="discrete" tableValues="0 0"/><feFuncG type="discrete" tableValues="0 0"/><feFuncB type="discrete" tableValues="0 0"/><feFuncA type="linear" slope="0.4" intercept="0"/></feComponentTransfer><feGaussianBlur stdDeviation="6.11111 6.11111"/></filter><filter id="fx1" x="-10%" y="-10%" width="120%" height="120%" filterUnits="userSpaceOnUse" primitiveUnits="userSpaceOnUse"><feComponentTransfer color-interpolation-filters="sRGB"><feFuncR type="discrete" tableValues="0 0"/><feFuncG type="discrete" tableValues="0 0"/><feFuncB type="discrete" tableValues="0 0"/><feFuncA type="linear" slope="0.4" intercept="0"/></feComponentTransfer><feGaussianBlur stdDeviation="6.11111 6.11111"/></filter><filter id="fx2" x="-10%" y="-10%" width="120%" height="120%" filterUnits="userSpaceOnUse" primitiveUnits="userSpaceOnUse"><feComponentTransfer color-interpolation-filters="sRGB"><feFuncR type="discrete" tableValues="0 0"/><feFuncG type="discrete" tableValues="0 0"/><feFuncB type="discrete" tableValues="0 0"/><feFuncA type="linear" slope="0.4" intercept="0"/></feComponentTransfer><feGaussianBlur stdDeviation="6.11111 6.11111"/></filter><filter id="fx3" x="-10%" y="-10%" width="120%" height="120%" filterUnits="userSpaceOnUse" primitiveUnits="userSpaceOnUse"><feComponentTransfer color-interpolation-filters="sRGB"><feFuncR type="discrete" tableValues="0 0"/><feFuncG type="discrete" tableValues="0 0"/><feFuncB type="discrete" tableValues="0 0"/><feFuncA type="linear" slope="0.4" intercept="0"/></feComponentTransfer><feGaussianBlur stdDeviation="6.11111 6.11111"/></filter><clipPath id="clip4"><rect x="1018" y="347" width="2353" height="2003"/></clipPath></defs><g clip-path="url(#clip4)" transform="translate(-1018 -347)"><g filter="url(#fx0)" transform="translate(1017 346)"><g><path d="M20.0001 341.091C20.0001 163.619 163.869 19.75 341.341 19.75L2013.66 19.75C2191.13 19.75 2335 163.619 2335 341.091L2335 1626.41C2335 1803.88 2191.13 1947.75 2013.66 1947.75L341.341 1947.75C163.869 1947.75 20.0001 1803.88 20.0001 1626.41Z" fill="#F2F2F2" fill-rule="evenodd"/></g></g><path d="M1037 673.341C1037 495.869 1180.87 352 1358.34 352L3030.66 352C3208.13 352 3352 495.869 3352 673.341L3352 1958.66C3352 2136.13 3208.13 2280 3030.66 2280L1358.34 2280C1180.87 2280 1037 2136.13 1037 1958.66Z" fill="#F2F2F2" fill-rule="evenodd"/><g filter="url(#fx1)" transform="translate(1802 1032)"><g><path d="M19.9999 86.2516C19.9999 49.5238 49.7736 19.7501 86.5013 19.7501L709.499 19.7501C746.226 19.7501 776 49.5238 776 86.2516L776 352.248C776 388.976 746.226 418.75 709.499 418.75L86.5013 418.75C49.7736 418.75 19.9999 388.976 19.9999 352.248Z" fill="#F4B183" fill-rule="evenodd"/></g></g><path d="M1822 1104.5C1822 1067.77 1851.77 1038 1888.5 1038L2511.5 1038C2548.23 1038 2578 1067.77 2578 1104.5L2578 1370.5C2578 1407.23 2548.23 1437 2511.5 1437L1888.5 1437C1851.77 1437 1822 1407.23 1822 1370.5Z" fill="#F4B183" fill-rule="evenodd"/><g filter="url(#fx2)" transform="translate(1802 1674)"><g><path d="M19.9999 86.2514C19.9999 49.5236 49.7736 19.7499 86.5013 19.7499L709.499 19.7499C746.226 19.7499 776 49.5236 776 86.2514L776 352.248C776 388.976 746.226 418.75 709.499 418.75L86.5013 418.75C49.7736 418.75 19.9999 388.976 19.9999 352.248Z" fill="#BDD7EE" fill-rule="evenodd"/></g></g><path d="M1822 1746.5C1822 1709.77 1851.77 1680 1888.5 1680L2511.5 1680C2548.23 1680 2578 1709.77 2578 1746.5L2578 2012.5C2578 2049.23 2548.23 2079 2511.5 2079L1888.5 2079C1851.77 2079 1822 2049.23 1822 2012.5Z" fill="#BDD7EE" fill-rule="evenodd"/><g filter="url(#fx3)" transform="translate(1802 390)"><g><path d="M19.9999 86.2515C19.9999 49.5238 49.7736 19.75 86.5013 19.75L709.499 19.75C746.226 19.75 776 49.5238 776 86.2515L776 352.249C776 388.976 746.226 418.75 709.499 418.75L86.5013 418.75C49.7736 418.75 19.9999 388.976 19.9999 352.249Z" fill="#EAF5E3" fill-rule="evenodd"/></g></g><path d="M1822 462.502C1822 425.774 1851.77 396 1888.5 396L2511.5 396C2548.23 396 2578 425.774 2578 462.502L2578 728.499C2578 765.226 2548.23 795 2511.5 795L1888.5 795C1851.77 795 1822 765.226 1822 728.499Z" fill="#EAF5E3" fill-rule="evenodd"/><path d="M2578 595 3237.15 595" stroke="#000000" stroke-width="10.3125" stroke-miterlimit="8" fill="none" fill-rule="evenodd"/><path d="M3237 595 3237 1883.27" stroke="#000000" stroke-width="10.3125" stroke-miterlimit="8" fill="none" fill-rule="evenodd"/><path d="M2608.97 1875.02 3237.18 1878.65 3237.12 1888.96 2608.91 1885.33ZM2608.94 1880.18 2629.41 1906.08 2578 1880 2629.71 1854.52Z"/><path d="M0 0 390.077 0.000360892" stroke="#000000" stroke-width="10.3125" stroke-miterlimit="8" fill="none" fill-rule="evenodd" transform="matrix(-1 0 0 1 1822.08 1757)"/><path d="M0 0 665.923 0.000360892" stroke="#000000" stroke-width="10.3125" stroke-miterlimit="8" fill="none" fill-rule="evenodd" transform="matrix(-1 0 0 1 1821.92 2017)"/><path d="M0 0 0.000360892 866.462" stroke="#000000" stroke-width="10.3125" stroke-miterlimit="8" fill="none" fill-rule="evenodd" transform="matrix(1 0 0 -1 1156 2017.46)"/><path d="M30.9373-5.15623 665.923-5.15589 665.923 5.15661 30.9373 5.15627ZM30.9375 1.67664e-05 51.5625 25.7813 0 0 51.5625-25.7812Z" transform="matrix(-1 0 0 1 1821.92 595)"/><path d="M30.9373-5.15623 665.923-5.15589 665.923 5.15661 30.9373 5.15627ZM30.9375 1.67664e-05 51.5625 25.7813 0 0 51.5625-25.7812Z" transform="matrix(-1 0 0 1 1821.92 1151)"/><path d="M0 0 0.000360892 433.231" stroke="#000000" stroke-width="10.3125" stroke-miterlimit="8" fill="none" fill-rule="evenodd" transform="matrix(1 0 0 -1 1432 1756.23)"/><path d="M1432 1317.84 1791.14 1317.84 1791.14 1328.16 1432 1328.16ZM1791.14 1323 1770.51 1297.22 1822.08 1323 1770.51 1348.78Z"/><path d="M1866 621.001C1866 606.641 1877.64 595 1892 595L2508 595C2522.36 595 2534 606.641 2534 621.001L2534 725C2534 739.359 2522.36 751 2508 751L1892 751C1877.64 751 1866 739.359 1866 725Z" stroke="#548235" stroke-width="13.75" stroke-linecap="square" stroke-miterlimit="8" stroke-dasharray="41.25 13.75" fill="none" fill-rule="evenodd"/><path d="M1866 1263.83C1866 1249.57 1877.57 1238 1891.83 1238L2508.17 1238C2522.43 1238 2534 1249.57 2534 1263.83L2534 1367.17C2534 1381.43 2522.43 1393 2508.17 1393L1891.83 1393C1877.57 1393 1866 1381.43 1866 1367.17Z" stroke="#C55A11" stroke-width="13.75" stroke-linecap="square" stroke-miterlimit="8" stroke-dasharray="41.25 13.75" fill="none" fill-rule="evenodd"/><path d="M2534 1315 2930.85 1315" stroke="#000000" stroke-width="10.3125" stroke-miterlimit="8" fill="none" fill-rule="evenodd"/><path d="M2934 1315 2934 1509.19" stroke="#000000" stroke-width="10.3125" stroke-miterlimit="8" fill="none" fill-rule="evenodd"/><path d="M0 0 734.462 0.000360892" stroke="#000000" stroke-width="10.3125" stroke-miterlimit="8" fill="none" fill-rule="evenodd" transform="matrix(-1 0 0 1 2934.46 1510)"/><path d="M2205.16 1423.94 2205.16 1509.35 2194.84 1509.35 2194.84 1423.94ZM2200 1423.94 2174.22 1444.56 2200 1393 2225.78 1444.56Z"/><path d="M0 0 3.38481 642.231" stroke="#000000" stroke-width="10.3125" stroke-miterlimit="8" fill="none" fill-rule="evenodd" transform="matrix(1 0 0 -1 2931 1315.23)"/><path d="M2564.96 668.009 2930.87 669.959 2930.82 680.271 2564.91 678.321ZM2564.94 673.165 2585.42 699.056 2534 673 2585.7 647.494Z"/><text fill="#4472C4" font-family="Arial,Arial_MSFontService,sans-serif" font-weight="700" font-size="83" transform="matrix(1 0 0 1 1464.69 1731)">Reward</text><text fill="#4472C4" font-family="Arial,Arial_MSFontService,sans-serif" font-weight="700" font-size="83" transform="matrix(1 0 0 1 1195.62 1986)">State</text><text fill="#548235" font-family="Arial,Arial_MSFontService,sans-serif" font-weight="700" font-size="83" transform="matrix(1 0 0 1 2988.57 570)">Action</text><text fill="#C55A11" font-family="Arial,Arial_MSFontService,sans-serif" font-weight="700" font-size="83" transform="matrix(1 0 0 1 2585.41 1291)">TD Error</text><text font-family="Arial,Arial_MSFontService,sans-serif" font-style="italic" font-weight="700" font-size="83" transform="matrix(1 0 0 1 2009.7 704)">Policy Net</text><text font-family="Arial,Arial_MSFontService,sans-serif" font-style="italic" font-weight="700" font-size="83" transform="matrix(1 0 0 1 2017.7 1346)">Value Net</text><text font-family="Arial,Arial_MSFontService,sans-serif" font-weight="700" font-size="110" transform="matrix(1 0 0 1 2067.49 536)">Actor</text><text font-family="Arial,Arial_MSFontService,sans-serif" font-weight="700" font-size="110" transform="matrix(1 0 0 1 2065.92 1182)">Critic</text><text font-family="Arial,Arial_MSFontService,sans-serif" font-weight="700" font-size="110" transform="matrix(1 0 0 1 1854.46 1924)">Environment</text><path d="M1415.87 1063.23C1419.2 1063.23 1422.24 1063.42 1424.98 1063.82 1427.72 1064.21 1430.45 1064.89 1433.17 1065.86L1430.75 1077.14 1426.4 1077.14C1426.01 1073.95 1424.96 1071.53 1423.26 1069.89 1421.56 1068.24 1418.88 1067.42 1415.23 1067.42 1412.4 1067.42 1410.11 1068.14 1408.35 1069.59 1406.6 1071.04 1405.72 1072.95 1405.72 1075.31 1405.72 1076.6 1405.94 1077.74 1406.39 1078.72 1406.84 1079.71 1407.74 1080.79 1409.1 1081.97 1410.47 1083.15 1412.58 1084.6 1415.44 1086.32 1417.7 1087.68 1419.51 1088.93 1420.87 1090.05 1422.23 1091.18 1423.3 1092.3 1424.09 1093.41 1424.88 1094.52 1425.45 1095.69 1425.81 1096.93 1426.17 1098.17 1426.35 1099.66 1426.35 1101.41 1426.35 1104.6 1425.5 1107.33 1423.79 1109.61 1422.09 1111.88 1419.78 1113.57 1416.87 1114.68 1413.95 1115.79 1410.63 1116.35 1406.9 1116.35 1403.93 1116.35 1401.01 1116.12 1398.15 1115.68 1395.28 1115.23 1392.1 1114.47 1388.59 1113.39L1391.17 1101.68 1395.35 1101.68C1395.5 1105.12 1396.46 1107.72 1398.26 1109.47 1400.05 1111.23 1402.89 1112.1 1406.8 1112.1 1410.2 1112.1 1412.86 1111.34 1414.77 1109.82 1416.69 1108.3 1417.64 1106.14 1417.64 1103.35 1417.64 1101.74 1417.38 1100.35 1416.84 1099.19 1416.3 1098.02 1415.42 1096.9 1414.21 1095.83 1412.99 1094.75 1411.06 1093.41 1408.41 1091.8 1405.61 1090.12 1403.44 1088.6 1401.88 1087.24 1400.32 1085.87 1399.15 1084.4 1398.36 1082.8 1397.57 1081.21 1397.18 1079.38 1397.18 1077.3 1397.18 1074.47 1397.94 1071.99 1399.46 1069.86 1400.99 1067.73 1403.16 1066.09 1405.99 1064.95 1408.82 1063.8 1412.11 1063.23 1415.87 1063.23Z" fill-rule="evenodd"/><text fill="#000000" fill-opacity="0" font-family="Arial,Arial_MSFontService,sans-serif" font-size="53.1201" x="1388.59" y="1109.71">𝑠</text><path d="M1451.01 1088.91 1457.1 1088.91 1454.87 1098.83 1468.16 1098.83 1467.26 1103.17 1454.01 1103.17 1450.03 1119.53C1449.77 1120.63 1449.56 1121.61 1449.39 1122.48 1449.22 1123.35 1449.08 1124.14 1448.98 1124.84 1448.87 1125.55 1448.8 1126.19 1448.76 1126.76 1448.72 1127.33 1448.7 1127.87 1448.7 1128.36 1448.7 1129.92 1449.03 1131.15 1449.68 1132.03 1450.33 1132.92 1451.4 1133.36 1452.88 1133.36 1454.13 1133.36 1455.46 1132.9 1456.87 1131.97 1458.27 1131.05 1459.87 1129.6 1461.67 1127.62L1464.37 1130.35C1463.04 1131.84 1461.78 1133.1 1460.58 1134.14 1459.38 1135.18 1458.21 1136.04 1457.06 1136.7 1455.92 1137.36 1454.78 1137.85 1453.66 1138.15 1452.54 1138.44 1451.4 1138.59 1450.23 1138.59 1447.13 1138.59 1444.82 1137.87 1443.29 1136.41 1441.77 1134.95 1441.01 1132.8 1441.01 1129.96 1441.01 1129 1441.08 1127.94 1441.22 1126.78 1441.36 1125.62 1441.57 1124.49 1441.83 1123.4L1446.48 1103.17 1439.76 1103.17 1440.54 1100.16C1442.1 1100.16 1443.32 1100.01 1444.19 1099.71 1445.06 1099.41 1445.8 1099 1446.4 1098.48 1446.79 1098.11 1447.17 1097.66 1447.53 1097.13 1447.89 1096.6 1448.26 1095.95 1448.62 1095.2 1448.99 1094.44 1449.36 1093.55 1449.74 1092.52 1450.11 1091.49 1450.54 1090.29 1451.01 1088.91Z" fill-rule="evenodd"/><text fill="#000000" fill-opacity="0" font-family="Arial,Arial_MSFontService,sans-serif" font-size="49.6875" x="1439.76" y="1132.38">𝑡</text><path d="M1497.82 1091.49 1504.15 1091.49 1504.15 1112.03 1523.49 1112.03 1523.49 1118.01 1504.15 1118.01 1504.15 1138.56 1497.82 1138.56 1497.82 1118.01 1478.49 1118.01 1478.49 1112.03 1497.82 1112.03Z" fill-rule="evenodd"/><text fill="#000000" fill-opacity="0" font-family="Arial,Arial_MSFontService,sans-serif" font-size="47.0703" x="1478.49" y="1132.67">+</text><path d="M1556.69 1087.58 1559.07 1087.58C1559.02 1089.01 1558.98 1090.29 1558.96 1091.43 1558.93 1092.56 1558.91 1093.66 1558.9 1094.73 1558.88 1095.8 1558.88 1096.85 1558.88 1097.89L1558.88 1127.58C1558.88 1128.39 1558.9 1129.08 1558.96 1129.67 1559.01 1130.25 1559.09 1130.75 1559.21 1131.15 1559.33 1131.56 1559.48 1131.9 1559.68 1132.19 1559.87 1132.47 1560.1 1132.72 1560.36 1132.93 1560.67 1133.24 1561.09 1133.48 1561.61 1133.65 1562.13 1133.82 1562.8 1133.97 1563.6 1134.08 1564.41 1134.2 1565.38 1134.29 1566.51 1134.36 1567.65 1134.42 1569.01 1134.47 1570.6 1134.49L1570.6 1137.89 1539.62 1137.89 1539.62 1134.49C1541.16 1134.44 1542.46 1134.38 1543.53 1134.32 1544.59 1134.25 1545.5 1134.16 1546.26 1134.04 1547.02 1133.93 1547.62 1133.8 1548.08 1133.65 1548.53 1133.51 1548.93 1133.33 1549.27 1133.13 1549.63 1132.89 1549.94 1132.64 1550.21 1132.36 1550.47 1132.09 1550.67 1131.75 1550.83 1131.33 1550.99 1130.91 1551.11 1130.4 1551.2 1129.81 1551.29 1129.21 1551.34 1128.46 1551.34 1127.58L1551.34 1099.57C1551.34 1098.56 1551.14 1097.84 1550.75 1097.42 1550.36 1097.01 1549.8 1096.8 1549.07 1096.8 1548.27 1096.8 1547.07 1097.21 1545.48 1098.05 1543.89 1098.88 1541.83 1100.12 1539.31 1101.76 1538.97 1101.16 1538.66 1100.56 1538.37 1099.96 1538.08 1099.36 1537.78 1098.75 1537.47 1098.13 1540.7 1096.36 1543.9 1094.59 1547.06 1092.83 1550.22 1091.08 1553.43 1089.32 1556.69 1087.58Z" fill-rule="evenodd"/><text fill="#000000" fill-opacity="0" font-family="Arial,Arial_MSFontService,sans-serif" font-size="50.3125" x="1537.47" y="1131.6">1</text><path d="M1468.53 499.124C1471.86 499.124 1474.9 499.321 1477.64 499.715 1480.37 500.109 1483.1 500.789 1485.83 501.756L1483.41 513.036 1479.06 513.036C1478.66 509.849 1477.62 507.432 1475.92 505.785 1474.22 504.137 1471.54 503.314 1467.89 503.314 1465.06 503.314 1462.77 504.039 1461.01 505.489 1459.26 506.939 1458.38 508.846 1458.38 511.209 1458.38 512.498 1458.6 513.635 1459.05 514.62 1459.5 515.605 1460.4 516.688 1461.76 517.87 1463.12 519.051 1465.24 520.501 1468.1 522.22 1470.36 523.581 1472.17 524.825 1473.53 525.953 1474.89 527.081 1475.96 528.2 1476.75 529.31 1477.54 530.42 1478.11 531.593 1478.47 532.828 1478.83 534.063 1479 535.558 1479 537.313 1479 540.5 1478.15 543.23 1476.45 545.504 1474.75 547.778 1472.44 549.469 1469.52 550.58 1466.61 551.69 1463.29 552.245 1459.56 552.245 1456.59 552.245 1453.67 552.021 1450.81 551.573 1447.94 551.126 1444.76 550.365 1441.25 549.29L1443.82 537.581 1448.01 537.581C1448.16 541.019 1449.12 543.615 1450.91 545.37 1452.7 547.124 1455.55 548.001 1459.45 548.001 1462.86 548.001 1465.51 547.24 1467.43 545.719 1469.35 544.197 1470.3 542.039 1470.3 539.247 1470.3 537.635 1470.04 536.248 1469.5 535.084 1468.96 533.92 1468.08 532.801 1466.87 531.727 1465.65 530.653 1463.72 529.31 1461.07 527.699 1458.27 526.016 1456.1 524.494 1454.54 523.133 1452.98 521.773 1451.81 520.296 1451.02 518.702 1450.23 517.109 1449.84 515.274 1449.84 513.197 1449.84 510.368 1450.6 507.888 1452.12 505.758 1453.64 503.627 1455.82 501.989 1458.65 500.843 1461.48 499.697 1464.77 499.124 1468.53 499.124Z" fill-rule="evenodd"/><text fill="#000000" fill-opacity="0" font-family="Arial,Arial_MSFontService,sans-serif" font-size="53.1201" x="1441.25" y="545.605">𝑠</text><path d="M1503.67 524.805 1509.76 524.805 1507.53 534.727 1520.81 534.727 1519.92 539.063 1506.67 539.063 1502.69 555.43C1502.43 556.524 1502.21 557.507 1502.04 558.38 1501.88 559.252 1501.74 560.04 1501.63 560.743 1501.53 561.446 1501.46 562.084 1501.42 562.657 1501.38 563.23 1501.36 563.764 1501.36 564.259 1501.36 565.821 1501.69 567.045 1502.34 567.93 1502.99 568.816 1504.06 569.259 1505.54 569.259 1506.79 569.259 1508.12 568.796 1509.53 567.872 1510.93 566.947 1512.53 565.496 1514.33 563.516L1517.03 566.251C1515.7 567.735 1514.43 568.998 1513.24 570.04 1512.04 571.081 1510.87 571.934 1509.72 572.598 1508.57 573.262 1507.44 573.744 1506.32 574.044 1505.2 574.343 1504.06 574.493 1502.88 574.493 1499.79 574.493 1497.47 573.764 1495.95 572.305 1494.43 570.847 1493.67 568.699 1493.67 565.86 1493.67 564.897 1493.74 563.835 1493.88 562.677 1494.02 561.518 1494.23 560.391 1494.49 559.298L1499.13 539.063 1492.42 539.063 1493.2 536.055C1494.76 536.055 1495.98 535.906 1496.85 535.606 1497.72 535.307 1498.46 534.897 1499.06 534.376 1499.45 534.011 1499.82 533.562 1500.19 533.028 1500.55 532.494 1500.92 531.85 1501.28 531.094 1501.65 530.339 1502.02 529.447 1502.4 528.419 1502.77 527.39 1503.2 526.186 1503.67 524.805Z" fill-rule="evenodd"/><text fill="#000000" fill-opacity="0" font-family="Arial,Arial_MSFontService,sans-serif" font-size="49.6875" x="1492.42" y="568.282">𝑡</text><path d="M1550.7 1352.44C1552.96 1352.44 1554.74 1353.18 1556.05 1354.67 1557.35 1356.15 1558.01 1358.09 1558.01 1360.49 1558.01 1362.28 1557.67 1364.13 1556.99 1366.03L1557.68 1366.29C1561.19 1361.53 1564.57 1358.04 1567.81 1355.82 1571.05 1353.6 1574.33 1352.49 1577.66 1352.49 1580.28 1352.49 1582.46 1352.69 1584.22 1353.08L1581.64 1365.11 1576.11 1365.11C1575.89 1363.61 1575.59 1362.44 1575.19 1361.62 1574.8 1360.8 1574.33 1360.22 1573.8 1359.9 1573.26 1359.58 1572.58 1359.42 1571.76 1359.42 1570.47 1359.42 1569.06 1359.97 1567.54 1361.08 1566.02 1362.19 1564.31 1363.93 1562.41 1366.29 1560.51 1368.66 1559 1370.93 1557.87 1373.11 1556.74 1375.3 1555.8 1378.07 1555.05 1381.44L1549.95 1404.7 1540.66 1404.7 1548.45 1370.64C1548.95 1368.5 1549.27 1366.83 1549.41 1365.65 1549.56 1364.47 1549.63 1363.48 1549.63 1362.69 1549.63 1361.26 1549.39 1360.22 1548.93 1359.58 1548.46 1358.94 1547.73 1358.61 1546.73 1358.61 1545.62 1358.61 1544.44 1359.07 1543.21 1359.98 1541.97 1360.9 1540.28 1362.55 1538.13 1364.95L1535.07 1361.94C1538.37 1358.51 1541.12 1356.06 1543.34 1354.61 1545.56 1353.16 1548.02 1352.44 1550.7 1352.44Z" fill-rule="evenodd"/><text fill="#000000" fill-opacity="0" font-family="Arial,Arial_MSFontService,sans-serif" font-size="52.2607" x="1535.07" y="1398.16">𝑟</text><path d="M1590.69 1378.17 1596.79 1378.17 1594.56 1388.09 1607.84 1388.09 1606.94 1392.43 1593.7 1392.43 1589.71 1408.8C1589.45 1409.89 1589.24 1410.87 1589.07 1411.74 1588.9 1412.62 1588.76 1413.41 1588.66 1414.11 1588.56 1414.81 1588.48 1415.45 1588.45 1416.02 1588.41 1416.6 1588.39 1417.13 1588.39 1417.62 1588.39 1419.19 1588.71 1420.41 1589.36 1421.3 1590.01 1422.18 1591.08 1422.62 1592.57 1422.62 1593.82 1422.62 1595.14 1422.16 1596.55 1421.24 1597.96 1420.31 1599.56 1418.86 1601.36 1416.88L1604.05 1419.62C1602.72 1421.1 1601.46 1422.36 1600.26 1423.41 1599.06 1424.45 1597.89 1425.3 1596.75 1425.96 1595.6 1426.63 1594.47 1427.11 1593.35 1427.41 1592.23 1427.71 1591.08 1427.86 1589.91 1427.86 1586.81 1427.86 1584.5 1427.13 1582.98 1425.67 1581.45 1424.21 1580.69 1422.06 1580.69 1419.23 1580.69 1418.26 1580.76 1417.2 1580.91 1416.04 1581.05 1414.88 1581.25 1413.76 1581.51 1412.66L1586.16 1392.43 1579.44 1392.43 1580.22 1389.42C1581.79 1389.42 1583 1389.27 1583.87 1388.97 1584.75 1388.67 1585.48 1388.26 1586.08 1387.74 1586.47 1387.38 1586.85 1386.93 1587.21 1386.39 1587.58 1385.86 1587.94 1385.22 1588.31 1384.46 1588.67 1383.7 1589.04 1382.81 1589.42 1381.78 1589.8 1380.76 1590.22 1379.55 1590.69 1378.17Z" fill-rule="evenodd"/><text fill="#000000" fill-opacity="0" font-family="Arial,Arial_MSFontService,sans-serif" font-size="49.6875" x="1579.44" y="1421.65">𝑡</text><path d="M1637.51 1380.75 1643.83 1380.75 1643.83 1401.3 1663.17 1401.3 1663.17 1407.27 1643.83 1407.27 1643.83 1427.82 1637.51 1427.82 1637.51 1407.27 1618.17 1407.27 1618.17 1401.3 1637.51 1401.3Z" fill-rule="evenodd"/><text fill="#000000" fill-opacity="0" font-family="Arial,Arial_MSFontService,sans-serif" font-size="47.0703" x="1618.17" y="1421.94">+</text><path d="M1696.37 1376.84 1698.76 1376.84C1698.7 1378.27 1698.67 1379.56 1698.64 1380.69 1698.61 1381.82 1698.59 1382.92 1698.58 1383.99 1698.57 1385.06 1698.56 1386.11 1698.56 1387.16L1698.56 1416.84C1698.56 1417.65 1698.59 1418.35 1698.64 1418.93 1698.69 1419.52 1698.78 1420.01 1698.89 1420.42 1699.01 1420.82 1699.17 1421.17 1699.36 1421.45 1699.56 1421.74 1699.79 1421.99 1700.05 1422.19 1700.36 1422.51 1700.78 1422.75 1701.3 1422.92 1701.82 1423.09 1702.48 1423.23 1703.29 1423.35 1704.1 1423.46 1705.07 1423.55 1706.2 1423.62 1707.33 1423.69 1708.69 1423.73 1710.28 1423.76L1710.28 1427.16 1679.3 1427.16 1679.3 1423.76C1680.84 1423.7 1682.14 1423.65 1683.21 1423.58 1684.28 1423.52 1685.19 1423.42 1685.94 1423.31 1686.7 1423.19 1687.31 1423.06 1687.76 1422.92 1688.22 1422.77 1688.61 1422.6 1688.95 1422.39 1689.32 1422.16 1689.63 1421.9 1689.89 1421.63 1690.15 1421.35 1690.36 1421.01 1690.51 1420.59 1690.67 1420.18 1690.79 1419.67 1690.89 1419.07 1690.98 1418.47 1691.02 1417.73 1691.02 1416.84L1691.02 1388.83C1691.02 1387.82 1690.83 1387.1 1690.44 1386.69 1690.05 1386.27 1689.49 1386.06 1688.76 1386.06 1687.95 1386.06 1686.75 1386.48 1685.16 1387.31 1683.57 1388.14 1681.52 1389.38 1678.99 1391.02 1678.65 1390.42 1678.34 1389.82 1678.05 1389.23 1677.77 1388.63 1677.47 1388.01 1677.16 1387.39 1680.38 1385.62 1683.58 1383.85 1686.75 1382.1 1689.91 1380.34 1693.12 1378.59 1696.37 1376.84Z" fill-rule="evenodd"/><text fill="#000000" fill-opacity="0" font-family="Arial,Arial_MSFontService,sans-serif" font-size="50.3125" x="1677.16" y="1420.87">1</text><path d="M0 0 0.000360892 189.116" stroke="#000000" stroke-width="10.3125" stroke-miterlimit="8" stroke-dasharray="41.25 30.9375" fill="none" fill-rule="evenodd" transform="matrix(1 0 0 -1 1156 1151.12)"/><path d="M0 0 0.000360892 384.577" stroke="#000000" stroke-width="10.3125" stroke-miterlimit="8" fill="none" fill-rule="evenodd" transform="matrix(1 0 0 -1 1156 979.577)"/><path d="M2698.68 1781.97C2695 1781.97 2691.68 1783.46 2688.75 1786.43 2685.81 1789.4 2683.52 1793.39 2681.87 1798.38 2680.23 1803.38 2679.4 1808.36 2679.4 1813.34 2679.4 1817.07 2679.91 1819.85 2680.93 1821.69 2681.95 1823.54 2683.66 1824.46 2686.06 1824.46 2688.43 1824.46 2690.74 1823.44 2693.02 1821.4 2695.29 1819.36 2697.64 1816.45 2700.05 1812.67 2702.47 1808.89 2704.18 1804.53 2705.18 1799.59L2705.67 1797.28C2705.99 1795.81 2706.2 1794.54 2706.31 1793.47 2706.42 1792.39 2706.47 1791.23 2706.47 1789.98 2706.47 1787.22 2705.88 1785.2 2704.7 1783.91 2703.52 1782.62 2701.51 1781.97 2698.68 1781.97ZM2697.61 1777.73C2699.94 1777.73 2702.11 1777.99 2704.14 1778.51 2706.16 1779.03 2708.24 1779.95 2710.39 1781.28L2715.33 1777.73 2718.77 1778.59 2710.88 1812.64C2710.09 1816.04 2709.7 1818.69 2709.7 1820.59 2709.7 1822.02 2709.93 1823.06 2710.39 1823.71 2710.86 1824.35 2711.59 1824.67 2712.6 1824.67 2713.67 1824.67 2714.82 1824.24 2716.03 1823.36 2717.25 1822.48 2718.97 1820.81 2721.19 1818.34L2724.25 1821.34C2721.03 1824.78 2718.28 1827.23 2716.01 1828.68 2713.73 1830.13 2711.27 1830.85 2708.62 1830.85 2706.4 1830.85 2704.63 1830.12 2703.3 1828.65 2701.98 1827.18 2701.32 1825.23 2701.32 1822.79 2701.32 1820.82 2701.73 1818.73 2702.55 1816.51L2701.85 1816.3C2698.42 1821.31 2695.16 1824.98 2692.08 1827.31 2689 1829.63 2685.74 1830.8 2682.3 1830.8 2678.36 1830.8 2675.31 1829.31 2673.14 1826.34 2670.98 1823.37 2669.9 1819.2 2669.9 1813.82 2669.9 1807.67 2671.1 1801.75 2673.52 1796.07 2675.94 1790.4 2679.26 1785.92 2683.48 1782.65 2687.71 1779.37 2692.42 1777.73 2697.61 1777.73Z" fill-rule="evenodd"/><text fill="#000000" fill-opacity="0" font-family="Arial,Arial_MSFontService,sans-serif" font-size="53.1201" x="2669.9" y="1824.21">𝑎</text><path d="M2742.35 1803.47 2748.45 1803.47 2746.22 1813.39 2759.5 1813.39 2758.6 1817.72 2745.36 1817.72 2741.38 1834.09C2741.12 1835.18 2740.9 1836.17 2740.73 1837.04 2740.56 1837.91 2740.43 1838.7 2740.32 1839.4 2740.22 1840.11 2740.15 1840.74 2740.11 1841.32 2740.07 1841.89 2740.05 1842.42 2740.05 1842.92 2740.05 1844.48 2740.38 1845.71 2741.03 1846.59 2741.68 1847.48 2742.75 1847.92 2744.23 1847.92 2745.48 1847.92 2746.81 1847.46 2748.21 1846.53 2749.62 1845.61 2751.22 1844.16 2753.02 1842.18L2755.71 1844.91C2754.39 1846.4 2753.12 1847.66 2751.92 1848.7 2750.73 1849.74 2749.55 1850.59 2748.41 1851.26 2747.26 1851.92 2746.13 1852.4 2745.01 1852.7 2743.89 1853 2742.75 1853.15 2741.57 1853.15 2738.47 1853.15 2736.16 1852.42 2734.64 1850.97 2733.12 1849.51 2732.35 1847.36 2732.35 1844.52 2732.35 1843.56 2732.43 1842.5 2732.57 1841.34 2732.71 1840.18 2732.91 1839.05 2733.17 1837.96L2737.82 1817.72 2731.1 1817.72 2731.89 1814.72C2733.45 1814.72 2734.67 1814.57 2735.54 1814.27 2736.41 1813.97 2737.15 1813.56 2737.75 1813.04 2738.14 1812.67 2738.51 1812.22 2738.88 1811.69 2739.24 1811.15 2739.61 1810.51 2739.97 1809.75 2740.34 1809 2740.71 1808.11 2741.08 1807.08 2741.46 1806.05 2741.89 1804.85 2742.35 1803.47Z" fill-rule="evenodd"/><text fill="#000000" fill-opacity="0" font-family="Arial,Arial_MSFontService,sans-serif" font-size="49.6875" x="2731.1" y="1846.94">𝑡</text><path d="M1659.82 917.44C1656.25 919.709 1653.48 922.783 1651.49 926.66 1649.5 930.537 1648.51 934.637 1648.51 938.96 1648.51 941.797 1649 943.911 1649.97 945.302 1650.94 946.694 1652.44 947.39 1654.47 947.39 1656.2 947.39 1657.83 946.714 1659.35 945.363 1660.88 944.012 1662.1 942.101 1663 939.629 1663.91 937.156 1664.36 934.367 1664.36 931.26 1664.36 928.423 1663.97 925.822 1663.2 923.458 1662.43 921.094 1661.3 919.088 1659.82 917.44ZM1663.34 892.759C1669.02 892.759 1674.83 894.555 1680.77 898.149L1678.99 905.728 1673.48 905.728C1672.37 902.783 1670.99 900.587 1669.34 899.142 1667.69 897.696 1665.8 896.974 1663.67 896.974 1662.32 896.974 1661.24 897.298 1660.45 897.946 1659.65 898.595 1659.25 899.5 1659.25 900.662 1659.25 901.58 1659.45 902.492 1659.86 903.397 1660.26 904.302 1660.93 905.343 1661.87 906.518 1662.8 907.693 1664.44 909.537 1666.79 912.05 1668.98 914.4 1670.7 916.481 1671.96 918.291 1673.21 920.101 1674.19 922.04 1674.87 924.107 1675.56 926.174 1675.91 928.436 1675.91 930.895 1675.91 934.813 1674.95 938.372 1673.03 941.574 1671.11 944.776 1668.45 947.248 1665.05 948.99 1661.64 950.733 1657.85 951.604 1653.66 951.604 1650.31 951.604 1647.4 951.024 1644.95 949.862 1642.49 948.7 1640.6 947.005 1639.27 944.776 1637.95 942.547 1637.29 939.906 1637.29 936.853 1637.29 932.124 1638.93 927.7 1642.23 923.58 1645.53 919.46 1650.16 916.17 1656.13 913.711 1654.02 911.415 1652.51 909.456 1651.59 907.835 1650.67 906.214 1650.21 904.363 1650.21 902.283 1650.21 900.445 1650.76 898.804 1651.86 897.359 1652.95 895.913 1654.5 894.785 1656.5 893.975 1658.5 893.164 1660.78 892.759 1663.34 892.759Z" fill-rule="evenodd"/><text fill="#000000" fill-opacity="0" font-family="Arial,Arial_MSFontService,sans-serif" font-size="58.8457" x="1637.29" y="944.249">𝜹</text><path d="M1693.19 931.413 1700.23 931.413 1698.53 938.737 1705.65 938.737 1704.85 942.399 1697.68 942.399 1694.83 954.118C1694.35 956.13 1694.01 957.658 1693.82 958.703 1693.64 959.748 1693.55 960.632 1693.55 961.354 1693.55 962.272 1693.71 962.941 1694.04 963.361 1694.38 963.781 1694.86 963.991 1695.51 963.991 1696.39 963.991 1697.29 963.679 1698.22 963.054 1699.15 962.429 1700.15 961.462 1701.22 960.153L1703.48 962.468C1701.5 964.636 1699.69 966.145 1698.04 966.994 1696.39 967.844 1694.44 968.269 1692.2 968.269 1689.97 968.269 1688.26 967.697 1687.07 966.555 1685.88 965.412 1685.28 963.835 1685.28 961.823 1685.28 960.905 1685.35 960.031 1685.49 959.201 1685.63 958.371 1685.91 957.009 1686.34 955.114L1689.36 942.399 1684.79 942.399 1685.34 940.026C1686.71 940.026 1687.74 939.899 1688.45 939.646 1689.15 939.392 1689.74 939.011 1690.22 938.503 1690.7 937.995 1691.16 937.224 1691.61 936.188 1692.06 935.153 1692.59 933.562 1693.19 931.413Z" fill-rule="evenodd"/><text fill="#000000" fill-opacity="0" font-family="Arial,Arial_MSFontService,sans-serif" font-size="36.8555" x="1684.79" y="963.662">𝒕</text><path d="M1738.94 932.962 1788.87 932.962 1788.87 938.352 1738.94 938.352ZM1738.94 916.143 1788.87 916.143 1788.87 921.533 1738.94 921.533Z" fill-rule="evenodd"/><text fill="#000000" fill-opacity="0" font-family="Arial,Arial_MSFontService,sans-serif" font-size="22.209" x="1738.94" y="935.576">=</text><path d="M1832.44 910.104C1834.68 910.104 1836.47 910.733 1837.81 911.989 1839.15 913.245 1839.82 914.9 1839.82 916.954 1839.82 917.683 1839.67 918.602 1839.37 919.709L1839.7 919.831C1841.97 916.643 1844.34 914.225 1846.83 912.577 1849.31 910.929 1852.07 910.104 1855.1 910.104 1856.88 910.104 1858.77 910.361 1860.77 910.875L1858.38 921.776 1851.12 921.776C1851.12 919.966 1850.93 918.71 1850.54 918.007 1850.15 917.305 1849.48 916.954 1848.53 916.954 1847.8 916.954 1847 917.21 1846.14 917.724 1845.27 918.237 1844.24 919.237 1843.04 920.723 1841.84 922.209 1840.93 923.627 1840.32 924.978 1839.72 926.329 1839.18 928.058 1838.72 930.166L1834.14 950.956 1822.51 950.956 1829.04 922.79C1829.44 921.033 1829.64 919.696 1829.64 918.777 1829.64 917.886 1829.5 917.197 1829.2 916.71 1828.9 916.224 1828.39 915.981 1827.66 915.981 1826.82 915.981 1825.92 916.359 1824.94 917.116 1823.97 917.872 1822.84 918.993 1821.54 920.479L1818.62 917.562C1821.32 914.806 1823.72 912.874 1825.82 911.766 1827.91 910.658 1830.12 910.104 1832.44 910.104Z" fill-rule="evenodd"/><text fill="#000000" fill-opacity="0" font-family="Arial,Arial_MSFontService,sans-serif" font-size="40.8516" x="1818.62" y="945.85">𝒓</text><path d="M1873.64 931.413 1880.67 931.413 1878.97 938.737 1886.09 938.737 1885.3 942.399 1878.12 942.399 1875.28 954.118C1874.79 956.13 1874.46 957.658 1874.27 958.703 1874.08 959.748 1873.99 960.632 1873.99 961.354 1873.99 962.272 1874.16 962.941 1874.49 963.361 1874.82 963.781 1875.31 963.991 1875.95 963.991 1876.83 963.991 1877.74 963.679 1878.66 963.054 1879.59 962.429 1880.59 961.462 1881.67 960.153L1883.92 962.468C1881.95 964.636 1880.14 966.145 1878.49 966.994 1876.84 967.844 1874.89 968.269 1872.64 968.269 1870.42 968.269 1868.71 967.697 1867.52 966.555 1866.33 965.412 1865.73 963.835 1865.73 961.823 1865.73 960.905 1865.8 960.031 1865.93 959.201 1866.07 958.371 1866.35 957.009 1866.78 955.114L1869.8 942.399 1865.23 942.399 1865.79 940.026C1867.16 940.026 1868.19 939.899 1868.89 939.646 1869.6 939.392 1870.19 939.011 1870.67 938.503 1871.14 937.995 1871.61 937.224 1872.06 936.188 1872.51 935.153 1873.03 933.562 1873.64 931.413Z" fill-rule="evenodd"/><text fill="#000000" fill-opacity="0" font-family="Arial,Arial_MSFontService,sans-serif" font-size="36.8555" x="1865.23" y="963.662">𝒕</text><path d="M1906.47 932.995 1911.21 932.995 1911.21 948.405 1925.71 948.405 1925.71 952.888 1911.21 952.888 1911.21 968.298 1906.47 968.298 1906.47 952.888 1891.96 952.888 1891.96 948.405 1906.47 948.405Z" fill-rule="evenodd"/><text fill="#000000" fill-opacity="0" font-family="Arial,Arial_MSFontService,sans-serif" font-size="35.3027" x="1891.96" y="963.885">+</text><path d="M1950.65 927.341 1954.4 927.341C1954.28 929.216 1954.23 931.813 1954.23 935.134L1954.23 959.626C1954.23 960.759 1954.29 961.613 1954.42 962.189 1954.54 962.766 1954.77 963.234 1955.09 963.596 1955.41 963.957 1955.88 964.24 1956.48 964.445 1957.09 964.65 1957.85 964.807 1958.77 964.914 1959.68 965.021 1960.9 965.095 1962.4 965.134L1962.4 967.8 1937.12 967.8 1937.12 965.134C1939.28 965.036 1940.83 964.904 1941.76 964.738 1942.69 964.572 1943.4 964.323 1943.88 963.991 1944.37 963.659 1944.73 963.19 1944.95 962.585 1945.18 961.979 1945.29 960.993 1945.29 959.626L1945.29 938.444C1945.29 937.644 1945.14 937.067 1944.84 936.716 1944.53 936.364 1944.12 936.188 1943.59 936.188 1943.1 936.188 1942.41 936.413 1941.53 936.862 1940.64 937.312 1939.18 938.229 1937.15 939.616L1935.36 936.511Z" fill-rule="evenodd"/><text fill="#000000" fill-opacity="0" font-family="Arial,Arial_MSFontService,sans-serif" font-size="40.459" x="1935.36" y="962.742">𝟏</text><path d="M2016.52 901.188 2022.28 901.188 2022.28 924.532 2044.36 924.532 2044.36 929.922 2022.28 929.922 2022.28 953.266 2016.52 953.266 2016.52 929.922 1994.43 929.922 1994.43 924.532 2016.52 924.532Z" fill-rule="evenodd"/><text fill="#000000" fill-opacity="0" font-family="Arial,Arial_MSFontService,sans-serif" font-size="52.0776" x="1994.43" y="946.756">+</text><path d="M2134.04 910.104C2136.69 910.104 2138.74 910.834 2140.18 912.293 2141.63 913.752 2142.35 915.589 2142.35 917.805 2142.35 919.156 2142.2 920.561 2141.91 922.02L2139.27 934.38C2139.03 935.812 2138.83 937.204 2138.66 938.555 2138.5 939.906 2138.42 941.108 2138.42 942.162 2138.42 943.188 2138.49 944.026 2138.62 944.674 2138.76 945.323 2138.94 945.647 2139.15 945.647 2139.91 945.647 2140.89 945.296 2142.09 944.593 2143.29 943.891 2144.59 942.918 2145.98 941.675 2147.37 940.432 2148.76 938.973 2150.15 937.298 2151.55 935.623 2152.8 933.813 2153.92 931.868 2155.04 929.922 2155.95 927.862 2156.64 925.687 2157.33 923.512 2157.67 921.317 2157.67 919.102 2157.67 918.021 2157.46 917.183 2157.04 916.589 2156.63 915.994 2155.97 915.697 2155.08 915.697 2154.08 915.697 2153.15 916.069 2152.3 916.812 2151.45 917.555 2150.58 918.548 2149.69 919.791L2146.85 917.521C2148.55 915.17 2150.45 913.347 2152.55 912.05 2154.64 910.753 2156.97 910.104 2159.54 910.104 2162.08 910.104 2163.87 910.76 2164.93 912.07 2165.98 913.38 2166.51 915.13 2166.51 917.318 2166.51 918.588 2166.26 920.054 2165.78 921.716 2165.29 923.377 2164.59 925.127 2163.67 926.964 2162.75 928.801 2161.67 930.692 2160.43 932.638 2159.19 934.583 2157.81 936.468 2156.29 938.291 2154.78 940.115 2153.17 941.837 2151.45 943.458 2149.74 945.08 2147.95 946.491 2146.1 947.694 2144.25 948.896 2142.37 949.848 2140.47 950.551 2138.56 951.253 2136.65 951.604 2134.73 951.604 2133.3 951.604 2132.13 951.409 2131.21 951.017 2130.29 950.625 2129.62 950.071 2129.2 949.355 2128.78 948.639 2128.51 947.802 2128.37 946.843 2128.24 945.883 2128.17 944.836 2128.17 943.702 2128.17 942.135 2128.26 940.48 2128.45 938.737 2128.64 936.994 2128.88 935.245 2129.18 933.489L2131.65 922.02C2131.82 921.317 2131.95 920.675 2132.06 920.094 2132.17 919.514 2132.22 919.048 2132.22 918.696 2132.22 917.886 2132.05 917.244 2131.71 916.771 2131.38 916.298 2130.68 916.062 2129.63 916.062 2127.95 916.062 2125.56 917.48 2122.45 920.317L2119.94 917.48C2121.21 915.886 2123.11 914.259 2125.64 912.597 2128.16 910.935 2130.96 910.104 2134.04 910.104ZM2082.67 910.104C2085.04 910.104 2086.93 910.638 2088.32 911.705 2089.71 912.773 2090.71 914.367 2091.32 916.488 2091.93 918.608 2092.23 921.371 2092.23 924.775 2092.23 928.477 2091.89 933.435 2091.22 939.649L2091.58 939.852C2094.53 934.556 2097.14 929.382 2099.4 924.33 2101.67 919.277 2103.44 914.752 2104.71 910.753L2118.05 910.753 2117.48 913.468C2112.83 919.115 2107.98 925.37 2102.93 932.232 2097.88 939.095 2093.53 945.404 2089.88 951.159 2089.29 956.941 2088.46 962.29 2087.41 967.208L2077.76 967.208 2075.66 964.046C2076.36 962.02 2077.28 959.71 2078.41 957.116 2079.55 954.522 2080.69 952.226 2081.86 950.227 2082.1 946.795 2082.22 942.432 2082.22 937.136 2082.22 933.867 2082.16 930.929 2082.04 928.322 2081.92 925.714 2081.69 923.485 2081.35 921.635 2081.01 919.784 2080.53 918.379 2079.89 917.42 2079.26 916.461 2078.44 915.981 2077.44 915.981 2076.93 915.981 2076.45 916.069 2076 916.244 2075.55 916.42 2075.01 916.758 2074.38 917.258 2073.74 917.757 2072.99 918.467 2072.13 919.385L2069.21 916.508C2071.78 914.184 2073.99 912.536 2075.86 911.563 2077.72 910.591 2079.99 910.104 2082.67 910.104Z" fill-rule="evenodd"/><text fill="#000000" fill-opacity="0" font-family="Arial,Arial_MSFontService,sans-serif" font-size="57.103" x="2069.21" y="960.07">𝜸𝒗</text><path d="M2478.4 888.842C2486.29 890.922 2492.35 895.414 2496.57 902.317 2500.8 909.221 2502.92 917.549 2502.92 927.302 2502.92 937.083 2500.81 945.411 2496.6 952.288 2492.38 959.164 2486.31 963.642 2478.4 965.722L2477.43 962.602C2483.67 960.521 2488.31 956.415 2491.35 950.281 2494.39 944.148 2495.91 936.354 2495.91 926.897 2495.91 917.765 2494.39 910.18 2491.37 904.141 2488.34 898.103 2483.65 894.043 2477.3 891.963ZM2199.53 888.842 2200.63 891.963C2194.3 894.043 2189.62 898.103 2186.58 904.141 2183.54 910.18 2182.02 917.765 2182.02 926.897 2182.02 936.354 2183.54 944.148 2186.58 950.281 2189.62 956.415 2194.26 960.521 2200.5 962.602L2199.53 965.722C2191.62 963.642 2185.55 959.164 2181.34 952.288 2177.12 945.411 2175.01 937.083 2175.01 927.302 2175.01 917.549 2177.13 909.221 2181.36 902.317 2185.58 895.414 2191.64 890.922 2199.53 888.842Z" fill-rule="evenodd"/><path d="M2227.69 910.104C2229.77 910.104 2232.01 910.273 2234.4 910.611 2236.79 910.949 2238.97 911.401 2240.94 911.969L2238.84 921.655 2233.69 921.655C2233.45 919.142 2232.8 917.291 2231.76 916.103 2230.72 914.914 2229.23 914.319 2227.29 914.319 2225.48 914.319 2224.02 914.785 2222.93 915.718 2221.83 916.65 2221.29 917.913 2221.29 919.507 2221.29 920.912 2221.75 922.141 2222.67 923.195 2223.58 924.249 2225.37 925.572 2228.01 927.167 2230.88 928.869 2232.93 930.625 2234.18 932.435 2235.42 934.245 2236.04 936.366 2236.04 938.798 2236.04 941.554 2235.3 943.904 2233.83 945.85 2232.36 947.795 2230.35 949.24 2227.79 950.186 2225.24 951.132 2222.33 951.604 2219.06 951.604 2213.82 951.604 2208.79 950.956 2203.98 949.659L2206.25 939.608 2211.4 939.608C2211.53 942.04 2212.16 943.945 2213.28 945.323 2214.4 946.701 2216.13 947.39 2218.45 947.39 2220.58 947.39 2222.23 946.87 2223.39 945.829 2224.56 944.789 2225.14 943.323 2225.14 941.432 2225.14 940.297 2224.95 939.338 2224.57 938.555 2224.19 937.771 2223.57 937.008 2222.71 936.265 2221.84 935.522 2220.44 934.556 2218.49 933.367 2215.79 931.746 2213.82 930.064 2212.59 928.322 2211.36 926.579 2210.75 924.627 2210.75 922.465 2210.75 918.494 2212.24 915.441 2215.21 913.306 2218.18 911.172 2222.34 910.104 2227.69 910.104Z" fill-rule="evenodd"/><text fill="#000000" fill-opacity="0" font-family="Arial,Arial_MSFontService,sans-serif" font-size="41.5" x="2203.98" y="946.417">𝒔</text><path d="M2255.04 931.413 2262.07 931.413 2260.37 938.737 2267.49 938.737 2266.7 942.399 2259.52 942.399 2256.68 954.118C2256.19 956.13 2255.86 957.658 2255.67 958.703 2255.49 959.748 2255.39 960.632 2255.39 961.354 2255.39 962.272 2255.56 962.941 2255.89 963.361 2256.22 963.781 2256.71 963.991 2257.36 963.991 2258.24 963.991 2259.14 963.679 2260.07 963.054 2260.99 962.429 2261.99 961.462 2263.07 960.153L2265.32 962.468C2263.35 964.636 2261.54 966.145 2259.89 966.994 2258.24 967.844 2256.29 968.269 2254.05 968.269 2251.82 968.269 2250.11 967.697 2248.92 966.555 2247.73 965.412 2247.13 963.835 2247.13 961.823 2247.13 960.905 2247.2 960.031 2247.34 959.201 2247.47 958.371 2247.76 957.009 2248.19 955.114L2251.2 942.399 2246.63 942.399 2247.19 940.026C2248.56 940.026 2249.59 939.899 2250.3 939.646 2251 939.392 2251.59 939.011 2252.07 938.503 2252.55 937.995 2253.01 937.224 2253.46 936.188 2253.91 935.153 2254.44 933.562 2255.04 931.413Z" fill-rule="evenodd"/><text fill="#000000" fill-opacity="0" font-family="Arial,Arial_MSFontService,sans-serif" font-size="36.8555" x="2246.63" y="963.662">𝒕</text><path d="M2287.87 932.995 2292.61 932.995 2292.61 948.405 2307.12 948.405 2307.12 952.888 2292.61 952.888 2292.61 968.298 2287.87 968.298 2287.87 952.888 2273.37 952.888 2273.37 948.405 2287.87 948.405Z" fill-rule="evenodd"/><text fill="#000000" fill-opacity="0" font-family="Arial,Arial_MSFontService,sans-serif" font-size="35.3027" x="2273.37" y="963.885">+</text><path d="M2332.05 927.341 2335.8 927.341C2335.69 929.216 2335.63 931.813 2335.63 935.134L2335.63 959.626C2335.63 960.759 2335.69 961.613 2335.82 962.189 2335.95 962.766 2336.17 963.234 2336.49 963.596 2336.81 963.957 2337.28 964.24 2337.88 964.445 2338.49 964.65 2339.25 964.807 2340.17 964.914 2341.09 965.021 2342.3 965.095 2343.8 965.134L2343.8 967.8 2318.52 967.8 2318.52 965.134C2320.69 965.036 2322.23 964.904 2323.16 964.738 2324.09 964.572 2324.8 964.323 2325.29 963.991 2325.77 963.659 2326.13 963.19 2326.36 962.585 2326.58 961.979 2326.69 960.993 2326.69 959.626L2326.69 938.444C2326.69 937.644 2326.54 937.067 2326.24 936.716 2325.94 936.364 2325.52 936.188 2324.99 936.188 2324.5 936.188 2323.82 936.413 2322.93 936.862 2322.04 937.312 2320.58 938.229 2318.55 939.616L2316.76 936.511Z" fill-rule="evenodd"/><text fill="#000000" fill-opacity="0" font-family="Arial,Arial_MSFontService,sans-serif" font-size="40.459" x="2316.76" y="962.742">𝟏</text><path d="M2356.9 941.554 2363.99 941.554C2364.37 943.445 2364.55 945.309 2364.55 947.146 2364.55 949.038 2364.23 950.767 2363.58 952.334 2362.93 953.901 2361.9 955.461 2360.48 957.015 2359.06 958.568 2357.11 960.277 2354.63 962.142L2352.44 959.669C2353.81 958.373 2354.81 957.204 2355.44 956.164 2356.06 955.124 2356.5 953.942 2356.77 952.618 2357.04 951.294 2357.18 949.632 2357.18 947.633 2357.18 945.579 2357.08 943.553 2356.9 941.554Z" fill-rule="evenodd"/><text fill="#000000" fill-opacity="0" font-family="Arial,Arial_MSFontService,sans-serif" font-size="20.5879" x="2352.44" y="959.568">,</text><path d="M2385.24 910.753 2399.38 910.753 2401.61 940.176C2405.66 933.908 2408.49 928.916 2410.1 925.201 2411.71 921.486 2412.72 917.562 2413.12 913.428L2413.69 910.753 2422.81 910.753 2425.32 940.216C2429.24 934.299 2432.08 929.49 2433.85 925.789 2435.62 922.087 2436.51 919.034 2436.51 916.629 2436.51 915.603 2436.26 914.826 2435.78 914.299 2435.29 913.772 2434.44 913.482 2433.22 913.428L2433.79 910.753 2445.22 910.753 2446.64 913.428C2445.37 917.075 2442.59 922.391 2438.31 929.375 2434.03 936.359 2428.94 943.756 2423.05 951.564L2416.2 951.564 2414.95 939.568C2414.59 936.326 2414.36 933.881 2414.26 932.232 2414.15 930.584 2414.09 929.274 2414.09 928.301L2413.69 928.301C2410.31 935.326 2405.57 943.08 2399.46 951.564L2392.09 951.564 2388.89 920.398C2388.7 918.507 2388.46 917.109 2388.18 916.204 2387.89 915.299 2387.49 914.63 2386.96 914.198 2386.43 913.765 2385.66 913.509 2384.63 913.428Z" fill-rule="evenodd"/><text fill="#000000" fill-opacity="0" font-family="Arial,Arial_MSFontService,sans-serif" font-size="40.811" x="2384.63" y="946.463">𝒘</text><path d="M2458.98 931.413 2466.01 931.413 2464.31 938.737 2471.43 938.737 2470.64 942.399 2463.46 942.399 2460.62 954.118C2460.13 956.13 2459.79 957.658 2459.61 958.703 2459.42 959.748 2459.33 960.632 2459.33 961.354 2459.33 962.272 2459.49 962.941 2459.83 963.361 2460.16 963.781 2460.65 963.991 2461.29 963.991 2462.17 963.991 2463.07 963.679 2464 963.054 2464.93 962.429 2465.93 961.462 2467 960.153L2469.26 962.468C2467.29 964.636 2465.48 966.145 2463.83 966.994 2462.18 967.844 2460.23 968.269 2457.98 968.269 2455.75 968.269 2454.05 967.697 2452.85 966.555 2451.66 965.412 2451.07 963.835 2451.07 961.823 2451.07 960.905 2451.14 960.031 2451.27 959.201 2451.41 958.371 2451.69 957.009 2452.12 955.114L2455.14 942.399 2450.57 942.399 2451.13 940.026C2452.49 940.026 2453.53 939.899 2454.23 939.646 2454.93 939.392 2455.53 939.011 2456 938.503 2456.48 937.995 2456.95 937.224 2457.4 936.188 2457.84 935.153 2458.37 933.562 2458.98 931.413Z" fill-rule="evenodd"/><text fill="#000000" fill-opacity="0" font-family="Arial,Arial_MSFontService,sans-serif" font-size="36.8555" x="2450.57" y="963.662">𝒕</text><path d="M2534.37 924.532 2584.3 924.532 2584.3 929.922 2534.37 929.922Z" fill-rule="evenodd"/><text fill="#000000" fill-opacity="0" font-family="Arial,Arial_MSFontService,sans-serif" font-size="5.39014" x="2534.37" y="929.249">−</text><path d="M2623.98 910.104C2626.63 910.104 2628.68 910.834 2630.12 912.293 2631.57 913.752 2632.29 915.589 2632.29 917.805 2632.29 919.156 2632.14 920.561 2631.85 922.02L2629.21 934.38C2628.97 935.812 2628.77 937.204 2628.6 938.555 2628.44 939.906 2628.36 941.108 2628.36 942.162 2628.36 943.188 2628.43 944.026 2628.56 944.674 2628.7 945.323 2628.87 945.647 2629.09 945.647 2629.85 945.647 2630.83 945.296 2632.03 944.593 2633.23 943.891 2634.53 942.918 2635.92 941.675 2637.31 940.432 2638.7 938.973 2640.09 937.298 2641.49 935.623 2642.74 933.813 2643.86 931.868 2644.98 929.922 2645.89 927.862 2646.58 925.687 2647.27 923.512 2647.61 921.317 2647.61 919.102 2647.61 918.021 2647.4 917.183 2646.98 916.589 2646.56 915.994 2645.91 915.697 2645.02 915.697 2644.02 915.697 2643.09 916.069 2642.24 916.812 2641.39 917.555 2640.52 918.548 2639.63 919.791L2636.79 917.521C2638.49 915.17 2640.39 913.347 2642.49 912.05 2644.58 910.753 2646.91 910.104 2649.48 910.104 2652.02 910.104 2653.81 910.76 2654.87 912.07 2655.92 913.38 2656.45 915.13 2656.45 917.318 2656.45 918.588 2656.2 920.054 2655.72 921.716 2655.23 923.377 2654.53 925.127 2653.61 926.964 2652.69 928.801 2651.61 930.692 2650.37 932.638 2649.12 934.583 2647.75 936.468 2646.23 938.291 2644.72 940.115 2643.11 941.837 2641.39 943.458 2639.68 945.08 2637.89 946.491 2636.04 947.694 2634.19 948.896 2632.31 949.848 2630.41 950.551 2628.5 951.253 2626.59 951.604 2624.67 951.604 2623.24 951.604 2622.07 951.409 2621.15 951.017 2620.23 950.625 2619.56 950.071 2619.14 949.355 2618.72 948.639 2618.45 947.802 2618.31 946.843 2618.18 945.883 2618.11 944.836 2618.11 943.702 2618.11 942.135 2618.2 940.48 2618.39 938.737 2618.58 936.994 2618.82 935.245 2619.12 933.489L2621.59 922.02C2621.76 921.317 2621.89 920.675 2622 920.094 2622.11 919.514 2622.16 919.048 2622.16 918.696 2622.16 917.886 2621.99 917.244 2621.65 916.771 2621.32 916.298 2620.62 916.062 2619.57 916.062 2617.89 916.062 2615.5 917.48 2612.39 920.317L2609.88 917.48C2611.15 915.886 2613.05 914.259 2615.57 912.597 2618.1 910.935 2620.9 910.104 2623.98 910.104Z" fill-rule="evenodd"/><text fill="#000000" fill-opacity="0" font-family="Arial,Arial_MSFontService,sans-serif" font-size="41.5" x="2609.88" y="946.417">𝒗</text><path d="M2888.86 888.842C2896.75 890.922 2902.81 895.414 2907.04 902.317 2911.26 909.221 2913.38 917.549 2913.38 927.302 2913.38 937.083 2911.27 945.411 2907.06 952.288 2902.84 959.164 2896.78 963.642 2888.86 965.722L2887.89 962.602C2894.13 960.521 2898.77 956.415 2901.81 950.281 2904.85 944.148 2906.37 936.354 2906.37 926.897 2906.37 917.765 2904.85 910.18 2901.83 904.141 2898.8 898.103 2894.11 894.043 2887.76 891.963ZM2689.63 888.842 2690.72 891.963C2684.4 894.043 2679.72 898.103 2676.68 904.141 2673.64 910.18 2672.12 917.765 2672.12 926.897 2672.12 936.354 2673.64 944.148 2676.68 950.281 2679.72 956.415 2684.36 960.521 2690.6 962.602L2689.63 965.722C2681.71 963.642 2675.65 959.164 2671.43 952.288 2667.22 945.411 2665.11 937.083 2665.11 927.302 2665.11 917.549 2667.22 909.221 2671.45 902.317 2675.68 895.414 2681.74 890.922 2689.63 888.842Z" fill-rule="evenodd"/><path d="M2717.79 910.104C2719.87 910.104 2722.1 910.273 2724.49 910.611 2726.89 910.949 2729.07 911.401 2731.04 911.969L2728.93 921.655 2723.78 921.655C2723.54 919.142 2722.9 917.291 2721.86 916.103 2720.82 914.914 2719.33 914.319 2717.38 914.319 2715.57 914.319 2714.12 914.785 2713.02 915.718 2711.93 916.65 2711.38 917.913 2711.38 919.507 2711.38 920.912 2711.84 922.141 2712.76 923.195 2713.68 924.249 2715.46 925.572 2718.11 927.167 2720.97 928.869 2723.03 930.625 2724.27 932.435 2725.51 934.245 2726.14 936.366 2726.14 938.798 2726.14 941.554 2725.4 943.904 2723.93 945.85 2722.45 947.795 2720.44 949.24 2717.89 950.186 2715.33 951.132 2712.42 951.604 2709.15 951.604 2703.91 951.604 2698.89 950.956 2694.08 949.659L2696.35 939.608 2701.49 939.608C2701.63 942.04 2702.26 943.945 2703.38 945.323 2704.5 946.701 2706.22 947.39 2708.55 947.39 2710.68 947.39 2712.33 946.87 2713.49 945.829 2714.65 944.789 2715.23 943.323 2715.23 941.432 2715.23 940.297 2715.04 939.338 2714.67 938.555 2714.29 937.771 2713.67 937.008 2712.8 936.265 2711.94 935.522 2710.53 934.556 2708.59 933.367 2705.89 931.746 2703.92 930.064 2702.69 928.322 2701.46 926.579 2700.85 924.627 2700.85 922.465 2700.85 918.494 2702.33 915.441 2705.3 913.306 2708.28 911.172 2712.44 910.104 2717.79 910.104Z" fill-rule="evenodd"/><text fill="#000000" fill-opacity="0" font-family="Arial,Arial_MSFontService,sans-serif" font-size="41.5" x="2694.08" y="946.417">𝒔</text><path d="M2745.14 931.413 2752.17 931.413 2750.47 938.737 2757.59 938.737 2756.8 942.399 2749.62 942.399 2746.78 954.118C2746.29 956.13 2745.95 957.658 2745.77 958.703 2745.58 959.748 2745.49 960.632 2745.49 961.354 2745.49 962.272 2745.66 962.941 2745.99 963.361 2746.32 963.781 2746.81 963.991 2747.45 963.991 2748.33 963.991 2749.23 963.679 2750.16 963.054 2751.09 962.429 2752.09 961.462 2753.17 960.153L2755.42 962.468C2753.45 964.636 2751.64 966.145 2749.99 966.994 2748.34 967.844 2746.39 968.269 2744.14 968.269 2741.92 968.269 2740.21 967.697 2739.01 966.555 2737.82 965.412 2737.23 963.835 2737.23 961.823 2737.23 960.905 2737.3 960.031 2737.43 959.201 2737.57 958.371 2737.85 957.009 2738.28 955.114L2741.3 942.399 2736.73 942.399 2737.29 940.026C2738.65 940.026 2739.69 939.899 2740.39 939.646 2741.09 939.392 2741.69 939.011 2742.16 938.503 2742.64 937.995 2743.11 937.224 2743.56 936.188 2744 935.153 2744.53 933.562 2745.14 931.413Z" fill-rule="evenodd"/><text fill="#000000" fill-opacity="0" font-family="Arial,Arial_MSFontService,sans-serif" font-size="36.8555" x="2736.73" y="963.662">𝒕</text><path d="M2767.36 941.554 2774.45 941.554C2774.83 943.445 2775.01 945.309 2775.01 947.146 2775.01 949.038 2774.69 950.767 2774.04 952.334 2773.39 953.901 2772.36 955.461 2770.94 957.015 2769.52 958.568 2767.57 960.277 2765.09 962.142L2762.9 959.669C2764.28 958.373 2765.27 957.204 2765.9 956.164 2766.52 955.124 2766.96 953.942 2767.23 952.618 2767.5 951.294 2767.64 949.632 2767.64 947.633 2767.64 945.579 2767.54 943.553 2767.36 941.554Z" fill-rule="evenodd"/><text fill="#000000" fill-opacity="0" font-family="Arial,Arial_MSFontService,sans-serif" font-size="20.5879" x="2762.9" y="959.568">,</text><path d="M2795.7 910.753 2809.84 910.753 2812.07 940.176C2816.12 933.908 2818.95 928.916 2820.56 925.201 2822.17 921.486 2823.18 917.562 2823.58 913.428L2824.15 910.753 2833.27 910.753 2835.78 940.216C2839.7 934.299 2842.54 929.49 2844.31 925.789 2846.08 922.087 2846.97 919.034 2846.97 916.629 2846.97 915.603 2846.72 914.826 2846.24 914.299 2845.75 913.772 2844.9 913.482 2843.68 913.428L2844.25 910.753 2855.68 910.753 2857.1 913.428C2855.83 917.075 2853.05 922.391 2848.77 929.375 2844.49 936.359 2839.4 943.756 2833.51 951.564L2826.66 951.564 2825.41 939.568C2825.05 936.326 2824.82 933.881 2824.72 932.232 2824.61 930.584 2824.55 929.274 2824.55 928.301L2824.15 928.301C2820.77 935.326 2816.03 943.08 2809.92 951.564L2802.55 951.564 2799.35 920.398C2799.16 918.507 2798.92 917.109 2798.64 916.204 2798.35 915.299 2797.95 914.63 2797.42 914.198 2796.89 913.765 2796.12 913.509 2795.09 913.428Z" fill-rule="evenodd"/><text fill="#000000" fill-opacity="0" font-family="Arial,Arial_MSFontService,sans-serif" font-size="40.811" x="2795.09" y="946.463">𝒘</text><path d="M2869.44 931.413 2876.47 931.413 2874.77 938.737 2881.89 938.737 2881.1 942.399 2873.92 942.399 2871.08 954.118C2870.59 956.13 2870.25 957.658 2870.07 958.703 2869.88 959.748 2869.79 960.632 2869.79 961.354 2869.79 962.272 2869.96 962.941 2870.29 963.361 2870.62 963.781 2871.11 963.991 2871.75 963.991 2872.63 963.991 2873.53 963.679 2874.46 963.054 2875.39 962.429 2876.39 961.462 2877.47 960.153L2879.72 962.468C2877.75 964.636 2875.94 966.145 2874.29 966.994 2872.64 967.844 2870.69 968.269 2868.44 968.269 2866.22 968.269 2864.51 967.697 2863.31 966.555 2862.12 965.412 2861.53 963.835 2861.53 961.823 2861.53 960.905 2861.6 960.031 2861.73 959.201 2861.87 958.371 2862.15 957.009 2862.58 955.114L2865.6 942.399 2861.03 942.399 2861.59 940.026C2862.95 940.026 2863.99 939.899 2864.69 939.646 2865.39 939.392 2865.99 939.011 2866.46 938.503 2866.94 937.995 2867.41 937.224 2867.86 936.188 2868.3 935.153 2868.83 933.562 2869.44 931.413Z" fill-rule="evenodd"/><text fill="#000000" fill-opacity="0" font-family="Arial,Arial_MSFontService,sans-serif" font-size="36.8555" x="2861.03" y="963.662">𝒕</text><text font-family="Arial,Arial_MSFontService,sans-serif" font-weight="700" font-size="110" transform="matrix(1 0 0 1 1554.84 2258)">Actor</text><text font-family="Arial,Arial_MSFontService,sans-serif" font-weight="700" font-size="110" transform="matrix(1 0 0 1 1842.45 2258)">-</text><text font-family="Arial,Arial_MSFontService,sans-serif" font-weight="700" font-size="110" transform="matrix(1 0 0 1 1879.11 2258)">Critic Architecture</text></g></svg>