<svg width="2347" height="1848" xmlns="http://www.w3.org/2000/svg" xmlns:xlink="http://www.w3.org/1999/xlink" xml:space="preserve" overflow="hidden"><defs><filter id="fx0" x="-10%" y="-10%" width="120%" height="120%" filterUnits="userSpaceOnUse" primitiveUnits="userSpaceOnUse"><feComponentTransfer color-interpolation-filters="sRGB"><feFuncR type="discrete" tableValues="0 0"/><feFuncG type="discrete" tableValues="0 0"/><feFuncB type="discrete" tableValues="0 0"/><feFuncA type="linear" slope="0.4" intercept="0"/></feComponentTransfer><feGaussianBlur stdDeviation="6.11111 6.11111"/></filter><filter id="fx1" x="-10%" y="-10%" width="120%" height="120%" filterUnits="userSpaceOnUse" primitiveUnits="userSpaceOnUse"><feComponentTransfer color-interpolation-filters="sRGB"><feFuncR type="discrete" tableValues="0 0"/><feFuncG type="discrete" tableValues="0 0"/><feFuncB type="discrete" tableValues="0 0"/><feFuncA type="linear" slope="0.4" intercept="0"/></feComponentTransfer><feGaussianBlur stdDeviation="6.11111 6.11111"/></filter><filter id="fx2" x="-10%" y="-10%" width="120%" height="120%" filterUnits="userSpaceOnUse" primitiveUnits="userSpaceOnUse"><feComponentTransfer color-interpolation-filters="sRGB"><feFuncR type="discrete" tableValues="0 0"/><feFuncG type="discrete" tableValues="0 0"/><feFuncB type="discrete" tableValues="0 0"/><feFuncA type="linear" slope="0.4" intercept="0"/></feComponentTransfer><feGaussianBlur stdDeviation="6.11111 6.11111"/></filter><filter id="fx3" x="-10%" y="-10%" width="120%" height="120%" filterUnits="userSpaceOnUse" primitiveUnits="userSpaceOnUse"><feComponentTransfer color-interpolation-filters="sRGB"><feFuncR type="discrete" tableValues="0 0"/><feFuncG type="discrete" tableValues="0 0"/><feFuncB type="discrete" tableValues="0 0"/><feFuncA type="linear" slope="0.4" intercept="0"/></feComponentTransfer><feGaussianBlur stdDeviation="6.11111 6.11111"/></filter><filter id="fx4" x="-10%" y="-10%" width="120%" height="120%" filterUnits="userSpaceOnUse" primitiveUnits="userSpaceOnUse"><feComponentTransfer color-interpolation-filters="sRGB"><feFuncR type="discrete" tableValues="0 0"/><feFuncG type="discrete" tableValues="0 0"/><feFuncB type="discrete" tableValues="0 0"/><feFuncA type="linear" slope="0.4" intercept="0"/></feComponentTransfer><feGaussianBlur stdDeviation="6.11111 6.11111"/></filter><filter id="fx5" x="-10%" y="-10%" width="120%" height="120%" filterUnits="userSpaceOnUse" primitiveUnits="userSpaceOnUse"><feComponentTransfer color-interpolation-filters="sRGB"><feFuncR type="discrete" tableValues="0 0"/><feFuncG type="discrete" tableValues="0 0"/><feFuncB type="discrete" tableValues="0 0"/><feFuncA type="linear" slope="0.4" intercept="0"/></feComponentTransfer><feGaussianBlur stdDeviation="6.11111 6.11111"/></filter><filter id="fx6" x="-10%" y="-10%" width="120%" height="120%" filterUnits="userSpaceOnUse" primitiveUnits="userSpaceOnUse"><feComponentTransfer color-interpolation-filters="sRGB"><feFuncR type="discrete" tableValues="0 0"/><feFuncG type="discrete" tableValues="0 0"/><feFuncB type="discrete" tableValues="0 0"/><feFuncA type="linear" slope="0.4" intercept="0"/></feComponentTransfer><feGaussianBlur stdDeviation="6.11111 6.11111"/></filter><filter id="fx7" x="-10%" y="-10%" width="120%" height="120%" filterUnits="userSpaceOnUse" primitiveUnits="userSpaceOnUse"><feComponentTransfer color-interpolation-filters="sRGB"><feFuncR type="discrete" tableValues="0 0"/><feFuncG type="discrete" tableValues="0 0"/><feFuncB type="discrete" tableValues="0 0"/><feFuncA type="linear" slope="0.4" intercept="0"/></feComponentTransfer><feGaussianBlur stdDeviation="6.11111 6.11111"/></filter><filter id="fx8" x="-10%" y="-10%" width="120%" height="120%" filterUnits="userSpaceOnUse" primitiveUnits="userSpaceOnUse"><feComponentTransfer color-interpolation-filters="sRGB"><feFuncR type="discrete" tableValues="0 0"/><feFuncG type="discrete" tableValues="0 0"/><feFuncB type="discrete" tableValues="0 0"/><feFuncA type="linear" slope="0.4" intercept="0"/></feComponentTransfer><feGaussianBlur stdDeviation="6.11111 6.11111"/></filter><filter id="fx9" x="-10%" y="-10%" width="120%" height="120%" filterUnits="userSpaceOnUse" primitiveUnits="userSpaceOnUse"><feComponentTransfer color-interpolation-filters="sRGB"><feFuncR type="discrete" tableValues="0 0"/><feFuncG type="discrete" tableValues="0 0"/><feFuncB type="discrete" tableValues="0 0"/><feFuncA type="linear" slope="0.4" intercept="0"/></feComponentTransfer><feGaussianBlur stdDeviation="6.11111 6.11111"/></filter><filter id="fx10" x="-10%" y="-10%" width="120%" height="120%" filterUnits="userSpaceOnUse" primitiveUnits="userSpaceOnUse"><feComponentTransfer color-interpolation-filters="sRGB"><feFuncR type="discrete" tableValues="0 0"/><feFuncG type="discrete" tableValues="0 0"/><feFuncB type="discrete" tableValues="0 0"/><feFuncA type="linear" slope="0.4" intercept="0"/></feComponentTransfer><feGaussianBlur stdDeviation="6.11111 6.11111"/></filter><filter id="fx11" x="-10%" y="-10%" width="120%" height="120%" filterUnits="userSpaceOnUse" primitiveUnits="userSpaceOnUse"><feComponentTransfer color-interpolation-filters="sRGB"><feFuncR type="discrete" tableValues="0 0"/><feFuncG type="discrete" tableValues="0 0"/><feFuncB type="discrete" tableValues="0 0"/><feFuncA type="linear" slope="0.4" intercept="0"/></feComponentTransfer><feGaussianBlur stdDeviation="6.11111 6.11111"/></filter><filter id="fx12" x="-10%" y="-10%" width="120%" height="120%" filterUnits="userSpaceOnUse" primitiveUnits="userSpaceOnUse"><feComponentTransfer color-interpolation-filters="sRGB"><feFuncR type="discrete" tableValues="0 0"/><feFuncG type="discrete" tableValues="0 0"/><feFuncB type="discrete" tableValues="0 0"/><feFuncA type="linear" slope="0.4" intercept="0"/></feComponentTransfer><feGaussianBlur stdDeviation="6.11111 6.11111"/></filter><filter id="fx13" x="-10%" y="-10%" width="120%" height="120%" filterUnits="userSpaceOnUse" primitiveUnits="userSpaceOnUse"><feComponentTransfer color-interpolation-filters="sRGB"><feFuncR type="discrete" tableValues="0 0"/><feFuncG type="discrete" tableValues="0 0"/><feFuncB type="discrete" tableValues="0 0"/><feFuncA type="linear" slope="0.4" intercept="0"/></feComponentTransfer><feGaussianBlur stdDeviation="6.11111 6.11111"/></filter><filter id="fx14" x="-10%" y="-10%" width="120%" height="120%" filterUnits="userSpaceOnUse" primitiveUnits="userSpaceOnUse"><feComponentTransfer color-interpolation-filters="sRGB"><feFuncR type="discrete" tableValues="0 0"/><feFuncG type="discrete" tableValues="0 0"/><feFuncB type="discrete" tableValues="0 0"/><feFuncA type="linear" slope="0.4" intercept="0"/></feComponentTransfer><feGaussianBlur stdDeviation="6.11111 6.11111"/></filter><filter id="fx15" x="-10%" y="-10%" width="120%" height="120%" filterUnits="userSpaceOnUse" primitiveUnits="userSpaceOnUse"><feComponentTransfer color-interpolation-filters="sRGB"><feFuncR type="discrete" tableValues="0 0"/><feFuncG type="discrete" tableValues="0 0"/><feFuncB type="discrete" tableValues="0 0"/><feFuncA type="linear" slope="0.4" intercept="0"/></feComponentTransfer><feGaussianBlur stdDeviation="6.11111 6.11111"/></filter><filter id="fx16" x="-10%" y="-10%" width="120%" height="120%" filterUnits="userSpaceOnUse" primitiveUnits="userSpaceOnUse"><feComponentTransfer color-interpolation-filters="sRGB"><feFuncR type="discrete" tableValues="0 0"/><feFuncG type="discrete" tableValues="0 0"/><feFuncB type="discrete" tableValues="0 0"/><feFuncA type="linear" slope="0.4" intercept="0"/></feComponentTransfer><feGaussianBlur stdDeviation="6.11111 6.11111"/></filter><filter id="fx17" x="-10%" y="-10%" width="120%" height="120%" filterUnits="userSpaceOnUse" primitiveUnits="userSpaceOnUse"><feComponentTransfer color-interpolation-filters="sRGB"><feFuncR type="discrete" tableValues="0 0"/><feFuncG type="discrete" tableValues="0 0"/><feFuncB type="discrete" tableValues="0 0"/><feFuncA type="linear" slope="0.4" intercept="0"/></feComponentTransfer><feGaussianBlur stdDeviation="6.11111 6.11111"/></filter><filter id="fx18" x="-10%" y="-10%" width="120%" height="120%" filterUnits="userSpaceOnUse" primitiveUnits="userSpaceOnUse"><feComponentTransfer color-interpolation-filters="sRGB"><feFuncR type="discrete" tableValues="0 0"/><feFuncG type="discrete" tableValues="0 0"/><feFuncB type="discrete" tableValues="0 0"/><feFuncA type="linear" slope="0.4" intercept="0"/></feComponentTransfer><feGaussianBlur stdDeviation="6.11111 6.11111"/></filter><filter id="fx19" x="-10%" y="-10%" width="120%" height="120%" filterUnits="userSpaceOnUse" primitiveUnits="userSpaceOnUse"><feComponentTransfer color-interpolation-filters="sRGB"><feFuncR type="discrete" tableValues="0 0"/><feFuncG type="discrete" tableValues="0 0"/><feFuncB type="discrete" tableValues="0 0"/><feFuncA type="linear" slope="0.4" intercept="0"/></feComponentTransfer><feGaussianBlur stdDeviation="6.11111 6.11111"/></filter><filter id="fx20" x="-10%" y="-10%" width="120%" height="120%" filterUnits="userSpaceOnUse" primitiveUnits="userSpaceOnUse"><feComponentTransfer color-interpolation-filters="sRGB"><feFuncR type="discrete" tableValues="0 0"/><feFuncG type="discrete" tableValues="0 0"/><feFuncB type="discrete" tableValues="0 0"/><feFuncA type="linear" slope="0.4" intercept="0"/></feComponentTransfer><feGaussianBlur stdDeviation="6.11111 6.11111"/></filter></defs><g transform="translate(-128 -590)"><g filter="url(#fx0)" transform="translate(1049 2147)"><g><path d="M20.0001 29.7503C20.0001 24.2273 24.4774 19.75 30.0004 19.75L344 19.75C349.523 19.75 354 24.2273 354 29.7503L354 69.7495C354 75.2725 349.523 79.7498 344 79.7498L30.0004 79.7498C24.4774 79.7498 20.0001 75.2725 20.0001 69.7495Z" fill="#F4B183" fill-rule="evenodd"/></g></g><path d="M1069 2163C1069 2157.48 1073.48 2153 1079 2153L1393 2153C1398.52 2153 1403 2157.48 1403 2163L1403 2203C1403 2208.52 1398.52 2213 1393 2213L1079 2213C1073.48 2213 1069 2208.52 1069 2203Z" fill="#F4B183" fill-rule="evenodd"/><g filter="url(#fx1)" transform="translate(1049 2270)"><g><path d="M20.0001 29.7503C20.0001 24.2273 24.4774 19.75 30.0004 19.75L344 19.75C349.523 19.75 354 24.2273 354 29.7503L354 69.7495C354 75.2725 349.523 79.7498 344 79.7498L30.0004 79.7498C24.4774 79.7498 20.0001 75.2725 20.0001 69.7495Z" fill="#F4B183" fill-rule="evenodd"/></g></g><path d="M1069 2286C1069 2280.48 1073.48 2276 1079 2276L1393 2276C1398.52 2276 1403 2280.48 1403 2286L1403 2326C1403 2331.52 1398.52 2336 1393 2336L1079 2336C1073.48 2336 1069 2331.52 1069 2326Z" fill="#F4B183" fill-rule="evenodd"/><g filter="url(#fx2)" transform="translate(1589 2211)"><g><path d="M20.0001 29.5835C20.0001 24.1525 24.4028 19.7498 29.8338 19.7498L344.166 19.7498C349.597 19.7498 354 24.1525 354 29.5835L354 68.9162C354 74.3472 349.597 78.7499 344.166 78.7499L29.8338 78.7499C24.4028 78.7499 20.0001 74.3472 20.0001 68.9162Z" fill="#F4B183" fill-rule="evenodd"/></g></g><path d="M1609 2226.83C1609 2221.4 1613.4 2217 1618.83 2217L1933.17 2217C1938.6 2217 1943 2221.4 1943 2226.83L1943 2266.17C1943 2271.6 1938.6 2276 1933.17 2276L1618.83 2276C1613.4 2276 1609 2271.6 1609 2266.17Z" fill="#F4B183" fill-rule="evenodd"/><g filter="url(#fx3)" transform="translate(478 2211)"><g><path d="M20.0001 29.5834C20.0001 24.1524 24.4027 19.7498 29.8337 19.7498L340.167 19.7498C345.597 19.7498 350 24.1524 350 29.5834L350 68.9163C350 74.3472 345.597 78.7499 340.167 78.7499L29.8337 78.7499C24.4027 78.7499 20.0001 74.3472 20.0001 68.9163Z" fill="#F4B183" fill-rule="evenodd"/></g></g><path d="M498 2226.83C498 2221.4 502.403 2217 507.834 2217L818.167 2217C823.597 2217 828 2221.4 828 2226.83L828 2266.17C828 2271.6 823.597 2276 818.167 2276L507.834 2276C502.403 2276 498 2271.6 498 2266.17Z" fill="#F4B183" fill-rule="evenodd"/><g filter="url(#fx4)" transform="translate(164 818)"><g><path d="M19.9999 152.919C19.9999 79.3717 79.6218 19.7499 153.169 19.7499L685.831 19.7499C759.378 19.7499 819 79.3717 819 152.919L819 1131.58C819 1205.13 759.378 1264.75 685.831 1264.75L153.169 1264.75C79.6218 1264.75 19.9999 1205.13 19.9999 1131.58Z" fill="#F2F2F2" fill-rule="evenodd"/></g></g><path d="M184 957.169C184 883.622 243.622 824 317.169 824L849.831 824C923.378 824 983 883.622 983 957.169L983 1935.83C983 2009.38 923.378 2069 849.831 2069L317.169 2069C243.622 2069 184 2009.38 184 1935.83Z" fill="#F2F2F2" fill-rule="evenodd"/><g filter="url(#fx5)" transform="translate(1051 818)"><g><path d="M20.0001 227.254C20.0001 112.653 112.903 19.7499 227.504 19.7499L1151.5 19.7499C1266.1 19.7499 1359 112.653 1359 227.254L1359 1057.25C1359 1171.85 1266.1 1264.75 1151.5 1264.75L227.504 1264.75C112.903 1264.75 20.0001 1171.85 20.0001 1057.25Z" fill="#F2F2F2" fill-rule="evenodd"/></g></g><path d="M1071 1031.5C1071 916.903 1163.9 824 1278.5 824L2202.5 824C2317.1 824 2410 916.903 2410 1031.5L2410 1861.5C2410 1976.1 2317.1 2069 2202.5 2069L1278.5 2069C1163.9 2069 1071 1976.1 1071 1861.5Z" fill="#F2F2F2" fill-rule="evenodd"/><g filter="url(#fx6)" transform="translate(476 1871)"><g><path d="M20 38.0838C20 27.9582 28.2084 19.7499 38.3339 19.7499L335.666 19.7499C345.792 19.7499 354 27.9582 354 38.0838L354 111.416C354 121.542 345.792 129.75 335.666 129.75L38.3339 129.75C28.2084 129.75 20 121.542 20 111.416Z" fill="#BDD7EE" fill-rule="evenodd"/></g></g><path d="M496 1895.33C496 1885.21 504.208 1877 514.334 1877L811.666 1877C821.792 1877 830 1885.21 830 1895.33L830 1968.67C830 1978.79 821.792 1987 811.666 1987L514.334 1987C504.208 1987 496 1978.79 496 1968.67Z" fill="#BDD7EE" fill-rule="evenodd"/><g filter="url(#fx7)" transform="translate(356 860)"><g><path d="M20.0001 115.419C20.0001 62.5822 62.8324 19.7499 115.669 19.7499L498.331 19.7499C551.168 19.7499 594 62.5822 594 115.419L594 589.081C594 641.918 551.168 684.75 498.331 684.75L115.669 684.75C62.8324 684.75 20.0001 641.918 20.0001 589.081Z" fill="#EAF5E3" fill-rule="evenodd"/></g></g><path d="M376 961.669C376 908.832 418.832 866 471.669 866L854.331 866C907.168 866 950 908.832 950 961.669L950 1435.33C950 1488.17 907.168 1531 854.331 1531L471.669 1531C418.832 1531 376 1488.17 376 1435.33Z" fill="#EAF5E3" fill-rule="evenodd"/><g filter="url(#fx8)" transform="translate(476 1643)"><g><path d="M20 38.0839C20 27.9584 28.2084 19.75 38.3339 19.75L335.666 19.75C345.792 19.75 354 27.9584 354 38.0839L354 111.416C354 121.542 345.792 129.75 335.666 129.75L38.3339 129.75C28.2084 129.75 20 121.542 20 111.416Z" fill="#BDD7EE" fill-rule="evenodd"/></g></g><path d="M496 1667.33C496 1657.21 504.208 1649 514.334 1649L811.666 1649C821.792 1649 830 1657.21 830 1667.33L830 1740.67C830 1750.79 821.792 1759 811.666 1759L514.334 1759C504.208 1759 496 1750.79 496 1740.67Z" fill="#BDD7EE" fill-rule="evenodd"/><g filter="url(#fx9)" transform="translate(1100 859)"><g><path d="M19.9999 130.585C19.9999 69.3725 69.6225 19.7499 130.835 19.7499L1149.16 19.7499C1210.38 19.7499 1260 69.3725 1260 130.585L1260 573.915C1260 635.128 1210.38 684.75 1149.16 684.75L130.835 684.75C69.6225 684.75 19.9999 635.128 19.9999 573.915Z" fill="#EAF5E3" fill-rule="evenodd"/></g></g><path d="M1120 975.835C1120 914.622 1169.62 865 1230.84 865L2249.16 865C2310.38 865 2360 914.622 2360 975.835L2360 1419.16C2360 1480.38 2310.38 1530 2249.16 1530L1230.84 1530C1169.62 1530 1120 1480.38 1120 1419.16Z" fill="#EAF5E3" fill-rule="evenodd"/><g filter="url(#fx10)" transform="translate(1589 1871)"><g><path d="M20.0001 38.0838C20.0001 27.9582 28.2085 19.7499 38.3339 19.7499L335.666 19.7499C345.792 19.7499 354 27.9582 354 38.0838L354 111.416C354 121.542 345.792 129.75 335.666 129.75L38.3339 129.75C28.2085 129.75 20.0001 121.542 20.0001 111.416Z" fill="#BDD7EE" fill-rule="evenodd"/></g></g><path d="M1609 1895.33C1609 1885.21 1617.21 1877 1627.33 1877L1924.67 1877C1934.79 1877 1943 1885.21 1943 1895.33L1943 1968.67C1943 1978.79 1934.79 1987 1924.67 1987L1627.33 1987C1617.21 1987 1609 1978.79 1609 1968.67Z" fill="#BDD7EE" fill-rule="evenodd"/><g filter="url(#fx11)" transform="translate(1589 1643)"><g><path d="M20.0001 38.0839C20.0001 27.9584 28.2085 19.75 38.3339 19.75L335.666 19.75C345.792 19.75 354 27.9584 354 38.0839L354 111.416C354 121.542 345.792 129.75 335.666 129.75L38.3339 129.75C28.2085 129.75 20.0001 121.542 20.0001 111.416Z" fill="#BDD7EE" fill-rule="evenodd"/></g></g><path d="M1609 1667.33C1609 1657.21 1617.21 1649 1627.33 1649L1924.67 1649C1934.79 1649 1943 1657.21 1943 1667.33L1943 1740.67C1943 1750.79 1934.79 1759 1924.67 1759L1627.33 1759C1617.21 1759 1609 1750.79 1609 1740.67Z" fill="#BDD7EE" fill-rule="evenodd"/><g filter="url(#fx12)" transform="translate(478 1139)"><g><path d="M20.0001 37.5835C20.0001 27.7343 27.9844 19.75 37.8336 19.75L332.167 19.75C342.016 19.75 350 27.7343 350 37.5835L350 108.916C350 118.766 342.016 126.75 332.167 126.75L37.8336 126.75C27.9844 126.75 20.0001 118.766 20.0001 108.916Z" fill="#FFE699" fill-rule="evenodd"/></g></g><path d="M498 1162.83C498 1152.98 505.984 1145 515.834 1145L810.167 1145C820.016 1145 828 1152.98 828 1162.83L828 1234.17C828 1244.02 820.016 1252 810.167 1252L515.834 1252C505.984 1252 498 1244.02 498 1234.17Z" fill="#FFE699" fill-rule="evenodd"/><g filter="url(#fx13)" transform="translate(1591 1216)"><g><path d="M20.0001 37.5835C20.0001 27.7343 27.9845 19.75 37.8336 19.75L332.167 19.75C342.016 19.75 350 27.7343 350 37.5835L350 108.916C350 118.766 342.016 126.75 332.167 126.75L37.8336 126.75C27.9845 126.75 20.0001 118.766 20.0001 108.916Z" fill="#FFE699" fill-rule="evenodd"/></g></g><path d="M1611 1239.83C1611 1229.98 1618.98 1222 1628.83 1222L1923.17 1222C1933.02 1222 1941 1229.98 1941 1239.83L1941 1311.17C1941 1321.02 1933.02 1329 1923.17 1329L1628.83 1329C1618.98 1329 1611 1321.02 1611 1311.17Z" fill="#FFE699" fill-rule="evenodd"/><g filter="url(#fx14)" transform="translate(1972 1116)"><g><path d="M20 31.2502C20 24.8988 25.1488 19.75 31.5002 19.75L338.5 19.75C344.851 19.75 350 24.8988 350 31.2502L350 77.2499C350 83.6013 344.851 88.7501 338.5 88.7501L31.5002 88.7501C25.1488 88.7501 20 83.6013 20 77.2499Z" fill="#FFE699" fill-rule="evenodd"/></g></g><path d="M1992 1133.5C1992 1127.15 1997.15 1122 2003.5 1122L2310.5 1122C2316.85 1122 2322 1127.15 2322 1133.5L2322 1179.5C2322 1185.85 2316.85 1191 2310.5 1191L2003.5 1191C1997.15 1191 1992 1185.85 1992 1179.5Z" fill="#FFE699" fill-rule="evenodd"/><g filter="url(#fx15)" transform="translate(1972 1269)"><g><path d="M20 52.2505C20 34.301 34.551 19.75 52.5005 19.75L317.499 19.75C335.449 19.75 350 34.301 350 52.2505L350 182.249C350 200.199 335.449 214.75 317.499 214.75L52.5005 214.75C34.551 214.75 20 200.199 20 182.249Z" fill="#CFAFE7" fill-rule="evenodd"/></g></g><path d="M1992 1307.5C1992 1289.55 2006.55 1275 2024.5 1275L2289.5 1275C2307.45 1275 2322 1289.55 2322 1307.5L2322 1437.5C2322 1455.45 2307.45 1470 2289.5 1470L2024.5 1470C2006.55 1470 1992 1455.45 1992 1437.5Z" fill="#CFAFE7" fill-rule="evenodd"/><g filter="url(#fx16)" transform="translate(1781 902)"><g><path d="M19.9999 37.75C19.9999 27.8088 28.0589 19.7498 38.0001 19.7498L332 19.7498C341.941 19.7498 350 27.8088 350 37.75L350 109.75C350 119.691 341.941 127.75 332 127.75L38.0001 127.75C28.0589 127.75 19.9999 119.691 19.9999 109.75Z" fill="#FFE699" fill-rule="evenodd"/></g></g><path d="M1801 926C1801 916.059 1809.06 908 1819 908L2113 908C2122.94 908 2131 916.059 2131 926L2131 998C2131 1007.94 2122.94 1016 2113 1016L1819 1016C1809.06 1016 1801 1007.94 1801 998Z" fill="#FFE699" fill-rule="evenodd"/><g filter="url(#fx17)" transform="translate(1169 904)"><g><path d="M20 37.5834C20 27.7342 27.9843 19.7499 37.8335 19.7499L332.167 19.7499C342.016 19.7499 350 27.7342 350 37.5834L350 108.916C350 118.765 342.016 126.75 332.167 126.75L37.8335 126.75C27.9843 126.75 20 118.765 20 108.916Z" fill="#FFE699" fill-rule="evenodd"/></g></g><path d="M1189 927.833C1189 917.984 1196.98 910 1206.83 910L1501.17 910C1511.02 910 1519 917.984 1519 927.833L1519 999.166C1519 1009.02 1511.02 1017 1501.17 1017L1206.83 1017C1196.98 1017 1189 1009.02 1189 999.166Z" fill="#FFE699" fill-rule="evenodd"/><g filter="url(#fx18)" transform="translate(476 701)"><g><path d="M20 29.5838C20 24.1528 24.4027 19.7501 29.8337 19.7501L344.166 19.7501C349.597 19.7501 354 24.1528 354 29.5838L354 68.9165C354 74.3475 349.597 78.7503 344.166 78.7503L29.8337 78.7503C24.4027 78.7503 20 74.3475 20 68.9165Z" fill="#F4B183" fill-rule="evenodd"/></g></g><path d="M496 716.834C496 711.403 500.403 707 505.834 707L820.166 707C825.597 707 830 711.403 830 716.834L830 756.167C830 761.598 825.597 766 820.166 766L505.834 766C500.403 766 496 761.598 496 756.167Z" fill="#F4B183" fill-rule="evenodd"/><g filter="url(#fx19)" transform="translate(1167 701)"><g><path d="M20 29.5838C20 24.1528 24.4027 19.7501 29.8337 19.7501L344.166 19.7501C349.597 19.7501 354 24.1528 354 29.5838L354 68.9165C354 74.3475 349.597 78.7503 344.166 78.7503L29.8337 78.7503C24.4027 78.7503 20 74.3475 20 68.9165Z" fill="#F4B183" fill-rule="evenodd"/></g></g><path d="M1187 716.834C1187 711.403 1191.4 707 1196.83 707L1511.17 707C1516.6 707 1521 711.403 1521 716.834L1521 756.167C1521 761.598 1516.6 766 1511.17 766L1196.83 766C1191.4 766 1187 761.598 1187 756.167Z" fill="#F4B183" fill-rule="evenodd"/><g filter="url(#fx20)" transform="translate(1779 700)"><g><path d="M19.9999 29.5838C19.9999 24.1528 24.4026 19.7501 29.8336 19.7501L344.166 19.7501C349.597 19.7501 354 24.1528 354 29.5838L354 68.9165C354 74.3475 349.597 78.7502 344.166 78.7502L29.8336 78.7502C24.4026 78.7502 19.9999 74.3475 19.9999 68.9165Z" fill="#F4B183" fill-rule="evenodd"/></g></g><path d="M1799 715.834C1799 710.403 1803.4 706 1808.83 706L2123.17 706C2128.6 706 2133 710.403 2133 715.834L2133 755.167C2133 760.597 2128.6 765 2123.17 765L1808.83 765C1803.4 765 1799 760.597 1799 755.167Z" fill="#F4B183" fill-rule="evenodd"/><path d="M0-3.4375 118.453-3.4375 118.453 0.175394 115.016-3.26211 202.531-3.26211 202.531 3.61289 111.578 3.61289 111.578 0 115.016 3.4375 0 3.4375ZM202.531 0.175394 184.198-22.7413 230.031 0.175394 184.198 23.0921Z" transform="matrix(-1.83697e-16 -1 -1 1.83697e-16 663.676 2217.53)"/><path d="M0-3.4375 74.3092-3.4375 74.3092 1261.55 67.4342 1261.55 67.4342 0 70.8717 3.4375 0 3.4375ZM70.8717 1261.54 93.7884 1243.21 70.8717 1289.04 47.955 1243.21Z" transform="matrix(1 0 0 -1 1403.5 2306.54)"/><path d="M3.4375-0.0052909 5.1437 1108.51-1.73129 1108.52-3.4375 0.0052909ZM1.7062 1108.51 24.5946 1090.15 1.74852 1136.01-21.2387 1090.22Z" transform="matrix(1 0 0 -1 1236.5 2153.51)"/><path d="M3.4375-5.39305e-06 3.43782 202.531-3.43718 202.531-3.4375 5.39305e-06ZM0.000317748 202.531 22.917 184.198 0.000360892 230.031-22.9164 184.198Z" transform="matrix(1 0 0 -1 1776.5 2217.53)"/><path d="M3.4375-1.04689e-05 3.43778 91.0008-3.43722 91.0008-3.4375 1.04689e-05ZM0.000277142 91.0008 22.9169 72.6674 0.000360892 118.501-22.9164 72.6676Z" transform="matrix(1 0 0 -1 1776.5 1878)"/><path d="M3.4375-3.87267e-06 3.43783 292.839-3.43717 292.839-3.4375 3.87267e-06ZM0.000329911 292.839 22.917 274.506 0.000360892 320.339-22.9164 274.506Z" transform="matrix(1 0 0 -1 1776.5 1649.84)"/><path d="M3.4375-1.4805e-05 3.43774 56.2938-3.43726 56.2938-3.4375 1.4805e-05ZM0.000242452 56.2938 22.9168 37.9604 0.000360892 83.7938-22.9165 37.9606Z" transform="matrix(1 0 0 -1 2157.5 1275.29)"/><path d="M1773.06 1222.49 1773.06 1079.47 1873.45 1079.47 1870.01 1082.91 1870.01 1041 1876.89 1041 1876.89 1086.35 1776.5 1086.35 1779.94 1082.91 1779.94 1222.49ZM1873.45 1041 1850.53 1059.33 1873.45 1013.5 1896.37 1059.33Z"/><path d="M0-3.4375 44.666-3.4375 44.666 108.624 41.2285 105.187 83.4636 105.187 83.4636 112.062 37.791 112.062 37.791 0 41.2285 3.4375 0 3.4375ZM83.4636 108.624 65.1302 85.7076 110.964 108.624 65.1302 131.541Z" transform="matrix(-1.83697e-16 -1 -1 1.83697e-16 2157.12 1122.46)"/><path d="M3.4375-8.68837e-06 3.43779 115.285-3.43721 115.285-3.4375 8.68837e-06ZM0.000291385 115.285 22.9169 96.9515 0.000360892 142.785-22.9164 96.9516Z" transform="matrix(1 0 0 -1 1966.5 908.285)"/><path d="M3.4375-8.73453e-06 3.43779 114.53-3.43721 114.53-3.4375 8.73453e-06ZM0.000291016 114.53 22.9169 96.1969 0.000360892 142.03-22.9164 96.197Z" transform="matrix(1 0 0 -1 1354.5 908.53)"/><path d="M3.4375-1.04689e-05 3.43778 91.0008-3.43722 91.0008-3.4375 1.04689e-05ZM0.000277142 91.0008 22.9169 72.6674 0.000360892 118.501-22.9164 72.6676Z" transform="matrix(1 0 0 -1 663.5 1878)"/><path d="M3.4375-3.12255e-06 3.43784 369.793-3.43716 369.793-3.4375 3.12255e-06ZM0.000335912 369.793 22.917 351.46 0.000360892 397.293-22.9163 351.46Z" transform="matrix(1 0 0 -1 663.5 1649.79)"/><path d="M3.4375-3.27829e-06 3.43783 350.92-3.43717 350.92-3.4375 3.27829e-06ZM0.000334666 350.919 22.917 332.586 0.000360892 378.419-22.9164 332.586Z" transform="matrix(1 0 0 -1 663.5 1144.92)"/><text font-family="Times New Roman,Times New Roman_MSFontService,sans-serif" font-weight="700" font-size="41" transform="matrix(1 0 0 1 1089.69 2321)">Old Policy Mean</text><text font-family="Times New Roman,Times New Roman_MSFontService,sans-serif" font-weight="700" font-size="41" transform="matrix(1 0 0 1 1107.75 2198)">Old Policy Std</text><text font-family="Times New Roman,Times New Roman_MSFontService,sans-serif" font-weight="700" font-size="41" transform="matrix(1 0 0 1 554.057 2261)">Observation</text><text font-family="Times New Roman,Times New Roman_MSFontService,sans-serif" font-weight="700" font-size="41" transform="matrix(1 0 0 1 1667 2261)">Observation</text><text font-family="Times New Roman,Times New Roman_MSFontService,sans-serif" font-weight="700" font-size="41" transform="matrix(1 0 0 1 1726.58 1922)">Input</text><text font-family="Times New Roman,Times New Roman_MSFontService,sans-serif" font-weight="700" font-size="41" transform="matrix(1 0 0 1 1683.04 1971)">Embedde</text><text font-family="Times New Roman,Times New Roman_MSFontService,sans-serif" font-weight="700" font-size="41" transform="matrix(1 0 0 1 1850.33 1971)">r</text><text font-family="Times New Roman,Times New Roman_MSFontService,sans-serif" font-weight="700" font-size="41" transform="matrix(1 0 0 1 614.123 1922)">Input</text><text font-family="Times New Roman,Times New Roman_MSFontService,sans-serif" font-weight="700" font-size="41" transform="matrix(1 0 0 1 570.581 1971)">Embedde</text><text font-family="Times New Roman,Times New Roman_MSFontService,sans-serif" font-weight="700" font-size="41" transform="matrix(1 0 0 1 737.873 1971)">r</text><text font-family="Times New Roman,Times New Roman_MSFontService,sans-serif" font-weight="700" font-size="41" transform="matrix(1 0 0 1 556.348 1720)">Middleware</text><text font-family="Times New Roman,Times New Roman_MSFontService,sans-serif" font-weight="700" font-size="41" transform="matrix(1 0 0 1 1669.29 1718)">Middleware</text><text font-family="Times New Roman,Times New Roman_MSFontService,sans-serif" font-weight="700" font-size="41" transform="matrix(1 0 0 1 610.202 1213)">Dense</text><text font-family="Times New Roman,Times New Roman_MSFontService,sans-serif" font-weight="700" font-size="41" transform="matrix(1 0 0 1 1721.62 1263)">Dense</text><text font-family="Times New Roman,Times New Roman_MSFontService,sans-serif" font-weight="400" font-size="41" transform="matrix(1 0 0 1 1669.49 1312)">Policy</text><text font-family="Times New Roman,Times New Roman_MSFontService,sans-serif" font-weight="400" font-size="41" transform="matrix(1 0 0 1 1785.21 1312)">Mea</text><text font-family="Times New Roman,Times New Roman_MSFontService,sans-serif" font-weight="400" font-size="41" transform="matrix(1 0 0 1 1858.55 1312)">n</text><text font-family="Times New Roman,Times New Roman_MSFontService,sans-serif" font-weight="700" font-size="41" transform="matrix(1 0 0 1 2040.09 1170)">Exponentiate</text><text font-family="Times New Roman,Times New Roman_MSFontService,sans-serif" font-weight="700" font-size="41" transform="matrix(1 0 0 1 1885.06 950)">Gaussian</text><text font-family="Times New Roman,Times New Roman_MSFontService,sans-serif" font-weight="700" font-size="41" transform="matrix(1 0 0 1 1858.7 999)">Distribution</text><text font-family="Times New Roman,Times New Roman_MSFontService,sans-serif" font-weight="700" font-size="41" transform="matrix(1 0 0 1 1271.75 953)">Gaussian</text><text font-family="Times New Roman,Times New Roman_MSFontService,sans-serif" font-weight="700" font-size="41" transform="matrix(1 0 0 1 1245.4 1002)">Distribution</text><text font-family="Times New Roman,Times New Roman_MSFontService,sans-serif" font-weight="700" font-size="41" transform="matrix(1 0 0 1 2061.29 1337)">Learnable </text><text font-family="Times New Roman,Times New Roman_MSFontService,sans-serif" font-weight="700" font-size="41" transform="matrix(1 0 0 1 2080.2 1386)">Variable</text><text font-family="Times New Roman,Times New Roman_MSFontService,sans-serif" font-weight="400" font-size="41" transform="matrix(1 0 0 1 2033.22 1436)">Log</text><text font-family="Times New Roman,Times New Roman_MSFontService,sans-serif" font-weight="400" font-size="41" transform="matrix(1 0 0 1 2109.99 1436)">Policy</text><text font-family="Times New Roman,Times New Roman_MSFontService,sans-serif" font-weight="400" font-size="41" transform="matrix(1 0 0 1 2225.72 1436)">St</text><text font-family="Times New Roman,Times New Roman_MSFontService,sans-serif" font-weight="400" font-size="41" transform="matrix(1 0 0 1 2260.09 1436)">d</text><text font-family="Times New Roman,Times New Roman_MSFontService,sans-serif" font-weight="700" font-size="41" transform="matrix(1 0 0 1 561.504 748)">State Value</text><text font-family="Times New Roman,Times New Roman_MSFontService,sans-serif" font-weight="700" font-size="41" transform="matrix(1 0 0 1 1260.87 752)">Old Policy</text><text font-family="Times New Roman,Times New Roman_MSFontService,sans-serif" font-weight="700" font-size="41" transform="matrix(1 0 0 1 1866.74 747)">New Policy</text><text font-family="Times New Roman,Times New Roman_MSFontService,sans-serif" font-weight="700" font-size="55" transform="matrix(1 0 0 1 236.774 1902)">V Head</text><text font-family="Times New Roman,Times New Roman_MSFontService,sans-serif" font-weight="700" font-size="55" transform="matrix(1 0 0 1 2195.29 947)">PPO</text><text font-family="Times New Roman,Times New Roman_MSFontService,sans-serif" font-weight="700" font-size="55" transform="matrix(1 0 0 1 2187.84 1013)">Head</text></g></svg>