<svg width="3029" height="2906" xmlns="http://www.w3.org/2000/svg" xmlns:xlink="http://www.w3.org/1999/xlink" xml:space="preserve" overflow="hidden"><defs><filter id="fx0" x="-10%" y="-10%" width="120%" height="120%" filterUnits="userSpaceOnUse" primitiveUnits="userSpaceOnUse"><feComponentTransfer color-interpolation-filters="sRGB"><feFuncR type="discrete" tableValues="0 0"/><feFuncG type="discrete" tableValues="0 0"/><feFuncB type="discrete" tableValues="0 0"/><feFuncA type="linear" slope="0.4" intercept="0"/></feComponentTransfer><feGaussianBlur stdDeviation="6.11111 6.11111"/></filter><filter id="fx1" x="-10%" y="-10%" width="120%" height="120%" filterUnits="userSpaceOnUse" primitiveUnits="userSpaceOnUse"><feComponentTransfer color-interpolation-filters="sRGB"><feFuncR type="discrete" tableValues="0 0"/><feFuncG type="discrete" tableValues="0 0"/><feFuncB type="discrete" tableValues="0 0"/><feFuncA type="linear" slope="0.4" intercept="0"/></feComponentTransfer><feGaussianBlur stdDeviation="6.11111 6.11111"/></filter><filter id="fx2" x="-10%" y="-10%" width="120%" height="120%" filterUnits="userSpaceOnUse" primitiveUnits="userSpaceOnUse"><feComponentTransfer color-interpolation-filters="sRGB"><feFuncR type="discrete" tableValues="0 0"/><feFuncG type="discrete" tableValues="0 0"/><feFuncB type="discrete" tableValues="0 0"/><feFuncA type="linear" slope="0.4" intercept="0"/></feComponentTransfer><feGaussianBlur stdDeviation="6.11111 6.11111"/></filter><filter id="fx3" x="-10%" y="-10%" width="120%" height="120%" filterUnits="userSpaceOnUse" primitiveUnits="userSpaceOnUse"><feComponentTransfer color-interpolation-filters="sRGB"><feFuncR type="discrete" tableValues="0 0"/><feFuncG type="discrete" tableValues="0 0"/><feFuncB type="discrete" tableValues="0 0"/><feFuncA type="linear" slope="0.4" intercept="0"/></feComponentTransfer><feGaussianBlur stdDeviation="6.11111 6.11111"/></filter><filter id="fx4" x="-10%" y="-10%" width="120%" height="120%" filterUnits="userSpaceOnUse" primitiveUnits="userSpaceOnUse"><feComponentTransfer color-interpolation-filters="sRGB"><feFuncR type="discrete" tableValues="0 0"/><feFuncG type="discrete" tableValues="0 0"/><feFuncB type="discrete" tableValues="0 0"/><feFuncA type="linear" slope="0.4" intercept="0"/></feComponentTransfer><feGaussianBlur stdDeviation="6.11111 6.11111"/></filter><filter id="fx5" x="-10%" y="-10%" width="120%" height="120%" filterUnits="userSpaceOnUse" primitiveUnits="userSpaceOnUse"><feComponentTransfer color-interpolation-filters="sRGB"><feFuncR type="discrete" tableValues="0 0"/><feFuncG type="discrete" tableValues="0 0"/><feFuncB type="discrete" tableValues="0 0"/><feFuncA type="linear" slope="0.4" intercept="0"/></feComponentTransfer><feGaussianBlur stdDeviation="6.11111 6.11111"/></filter><filter id="fx6" x="-10%" y="-10%" width="120%" height="120%" filterUnits="userSpaceOnUse" primitiveUnits="userSpaceOnUse"><feComponentTransfer color-interpolation-filters="sRGB"><feFuncR type="discrete" tableValues="0 0"/><feFuncG type="discrete" tableValues="0 0"/><feFuncB type="discrete" tableValues="0 0"/><feFuncA type="linear" slope="0.4" intercept="0"/></feComponentTransfer><feGaussianBlur stdDeviation="6.11111 6.11111"/></filter><filter id="fx7" x="-10%" y="-10%" width="120%" height="120%" filterUnits="userSpaceOnUse" primitiveUnits="userSpaceOnUse"><feComponentTransfer color-interpolation-filters="sRGB"><feFuncR type="discrete" tableValues="0 0"/><feFuncG type="discrete" tableValues="0 0"/><feFuncB type="discrete" tableValues="0 0"/><feFuncA type="linear" slope="0.4" intercept="0"/></feComponentTransfer><feGaussianBlur stdDeviation="6.11111 6.11111"/></filter><filter id="fx8" x="-10%" y="-10%" width="120%" height="120%" filterUnits="userSpaceOnUse" primitiveUnits="userSpaceOnUse"><feComponentTransfer color-interpolation-filters="sRGB"><feFuncR type="discrete" tableValues="0 0"/><feFuncG type="discrete" tableValues="0 0"/><feFuncB type="discrete" tableValues="0 0"/><feFuncA type="linear" slope="0.4" intercept="0"/></feComponentTransfer><feGaussianBlur stdDeviation="6.11111 6.11111"/></filter><filter id="fx9" x="-10%" y="-10%" width="120%" height="120%" filterUnits="userSpaceOnUse" primitiveUnits="userSpaceOnUse"><feComponentTransfer color-interpolation-filters="sRGB"><feFuncR type="discrete" tableValues="0 0"/><feFuncG type="discrete" tableValues="0 0"/><feFuncB type="discrete" tableValues="0 0"/><feFuncA type="linear" slope="0.4" intercept="0"/></feComponentTransfer><feGaussianBlur stdDeviation="6.11111 6.11111"/></filter><filter id="fx10" x="-10%" y="-10%" width="120%" height="120%" filterUnits="userSpaceOnUse" primitiveUnits="userSpaceOnUse"><feComponentTransfer color-interpolation-filters="sRGB"><feFuncR type="discrete" tableValues="0 0"/><feFuncG type="discrete" tableValues="0 0"/><feFuncB type="discrete" tableValues="0 0"/><feFuncA type="linear" slope="0.4" intercept="0"/></feComponentTransfer><feGaussianBlur stdDeviation="6.11111 6.11111"/></filter><filter id="fx11" x="-10%" y="-10%" width="120%" height="120%" filterUnits="userSpaceOnUse" primitiveUnits="userSpaceOnUse"><feComponentTransfer color-interpolation-filters="sRGB"><feFuncR type="discrete" tableValues="0 0"/><feFuncG type="discrete" tableValues="0 0"/><feFuncB type="discrete" tableValues="0 0"/><feFuncA type="linear" slope="0.4" intercept="0"/></feComponentTransfer><feGaussianBlur stdDeviation="6.11111 6.11111"/></filter><filter id="fx12" x="-10%" y="-10%" width="120%" height="120%" filterUnits="userSpaceOnUse" primitiveUnits="userSpaceOnUse"><feComponentTransfer color-interpolation-filters="sRGB"><feFuncR type="discrete" tableValues="0 0"/><feFuncG type="discrete" tableValues="0 0"/><feFuncB type="discrete" tableValues="0 0"/><feFuncA type="linear" slope="0.4" intercept="0"/></feComponentTransfer><feGaussianBlur stdDeviation="6.11111 6.11111"/></filter><filter id="fx13" x="-10%" y="-10%" width="120%" height="120%" filterUnits="userSpaceOnUse" primitiveUnits="userSpaceOnUse"><feComponentTransfer color-interpolation-filters="sRGB"><feFuncR type="discrete" tableValues="0 0"/><feFuncG type="discrete" tableValues="0 0"/><feFuncB type="discrete" tableValues="0 0"/><feFuncA type="linear" slope="0.4" intercept="0"/></feComponentTransfer><feGaussianBlur stdDeviation="6.11111 6.11111"/></filter><filter id="fx14" x="-10%" y="-10%" width="120%" height="120%" filterUnits="userSpaceOnUse" primitiveUnits="userSpaceOnUse"><feComponentTransfer color-interpolation-filters="sRGB"><feFuncR type="discrete" tableValues="0 0"/><feFuncG type="discrete" tableValues="0 0"/><feFuncB type="discrete" tableValues="0 0"/><feFuncA type="linear" slope="0.4" intercept="0"/></feComponentTransfer><feGaussianBlur stdDeviation="6.11111 6.11111"/></filter><filter id="fx15" x="-10%" y="-10%" width="120%" height="120%" filterUnits="userSpaceOnUse" primitiveUnits="userSpaceOnUse"><feComponentTransfer color-interpolation-filters="sRGB"><feFuncR type="discrete" tableValues="0 0"/><feFuncG type="discrete" tableValues="0 0"/><feFuncB type="discrete" tableValues="0 0"/><feFuncA type="linear" slope="0.4" intercept="0"/></feComponentTransfer><feGaussianBlur stdDeviation="6.11111 6.11111"/></filter><filter id="fx16" x="-10%" y="-10%" width="120%" height="120%" filterUnits="userSpaceOnUse" primitiveUnits="userSpaceOnUse"><feComponentTransfer color-interpolation-filters="sRGB"><feFuncR type="discrete" tableValues="0 0"/><feFuncG type="discrete" tableValues="0 0"/><feFuncB type="discrete" tableValues="0 0"/><feFuncA type="linear" slope="0.4" intercept="0"/></feComponentTransfer><feGaussianBlur stdDeviation="6.11111 6.11111"/></filter><filter id="fx17" x="-10%" y="-10%" width="120%" height="120%" filterUnits="userSpaceOnUse" primitiveUnits="userSpaceOnUse"><feComponentTransfer color-interpolation-filters="sRGB"><feFuncR type="discrete" tableValues="0 0"/><feFuncG type="discrete" tableValues="0 0"/><feFuncB type="discrete" tableValues="0 0"/><feFuncA type="linear" slope="0.4" intercept="0"/></feComponentTransfer><feGaussianBlur stdDeviation="6.11111 6.11111"/></filter><filter id="fx18" x="-10%" y="-10%" width="120%" height="120%" filterUnits="userSpaceOnUse" primitiveUnits="userSpaceOnUse"><feComponentTransfer color-interpolation-filters="sRGB"><feFuncR type="discrete" tableValues="0 0"/><feFuncG type="discrete" tableValues="0 0"/><feFuncB type="discrete" tableValues="0 0"/><feFuncA type="linear" slope="0.4" intercept="0"/></feComponentTransfer><feGaussianBlur stdDeviation="6.11111 6.11111"/></filter><filter id="fx19" x="-10%" y="-10%" width="120%" height="120%" filterUnits="userSpaceOnUse" primitiveUnits="userSpaceOnUse"><feComponentTransfer color-interpolation-filters="sRGB"><feFuncR type="discrete" tableValues="0 0"/><feFuncG type="discrete" tableValues="0 0"/><feFuncB type="discrete" tableValues="0 0"/><feFuncA type="linear" slope="0.4" intercept="0"/></feComponentTransfer><feGaussianBlur stdDeviation="6.11111 6.11111"/></filter><filter id="fx20" x="-10%" y="-10%" width="120%" height="120%" filterUnits="userSpaceOnUse" primitiveUnits="userSpaceOnUse"><feComponentTransfer color-interpolation-filters="sRGB"><feFuncR type="discrete" tableValues="0 0"/><feFuncG type="discrete" tableValues="0 0"/><feFuncB type="discrete" tableValues="0 0"/><feFuncA type="linear" slope="0.4" intercept="0"/></feComponentTransfer><feGaussianBlur stdDeviation="6.11111 6.11111"/></filter><filter id="fx21" x="-10%" y="-10%" width="120%" height="120%" filterUnits="userSpaceOnUse" primitiveUnits="userSpaceOnUse"><feComponentTransfer color-interpolation-filters="sRGB"><feFuncR type="discrete" tableValues="0 0"/><feFuncG type="discrete" tableValues="0 0"/><feFuncB type="discrete" tableValues="0 0"/><feFuncA type="linear" slope="0.4" intercept="0"/></feComponentTransfer><feGaussianBlur stdDeviation="6.11111 6.11111"/></filter><filter id="fx22" x="-10%" y="-10%" width="120%" height="120%" filterUnits="userSpaceOnUse" primitiveUnits="userSpaceOnUse"><feComponentTransfer color-interpolation-filters="sRGB"><feFuncR type="discrete" tableValues="0 0"/><feFuncG type="discrete" tableValues="0 0"/><feFuncB type="discrete" tableValues="0 0"/><feFuncA type="linear" slope="0.4" intercept="0"/></feComponentTransfer><feGaussianBlur stdDeviation="6.11111 6.11111"/></filter><filter id="fx23" x="-10%" y="-10%" width="120%" height="120%" filterUnits="userSpaceOnUse" primitiveUnits="userSpaceOnUse"><feComponentTransfer color-interpolation-filters="sRGB"><feFuncR type="discrete" tableValues="0 0"/><feFuncG type="discrete" tableValues="0 0"/><feFuncB type="discrete" tableValues="0 0"/><feFuncA type="linear" slope="0.4" intercept="0"/></feComponentTransfer><feGaussianBlur stdDeviation="6.11111 6.11111"/></filter><filter id="fx24" x="-10%" y="-10%" width="120%" height="120%" filterUnits="userSpaceOnUse" primitiveUnits="userSpaceOnUse"><feComponentTransfer color-interpolation-filters="sRGB"><feFuncR type="discrete" tableValues="0 0"/><feFuncG type="discrete" tableValues="0 0"/><feFuncB type="discrete" tableValues="0 0"/><feFuncA type="linear" slope="0.4" intercept="0"/></feComponentTransfer><feGaussianBlur stdDeviation="6.11111 6.11111"/></filter><filter id="fx25" x="-10%" y="-10%" width="120%" height="120%" filterUnits="userSpaceOnUse" primitiveUnits="userSpaceOnUse"><feComponentTransfer color-interpolation-filters="sRGB"><feFuncR type="discrete" tableValues="0 0"/><feFuncG type="discrete" tableValues="0 0"/><feFuncB type="discrete" tableValues="0 0"/><feFuncA type="linear" slope="0.4" intercept="0"/></feComponentTransfer><feGaussianBlur stdDeviation="6.11111 6.11111"/></filter><filter id="fx26" x="-10%" y="-10%" width="120%" height="120%" filterUnits="userSpaceOnUse" primitiveUnits="userSpaceOnUse"><feComponentTransfer color-interpolation-filters="sRGB"><feFuncR type="discrete" tableValues="0 0"/><feFuncG type="discrete" tableValues="0 0"/><feFuncB type="discrete" tableValues="0 0"/><feFuncA type="linear" slope="0.4" intercept="0"/></feComponentTransfer><feGaussianBlur stdDeviation="6.11111 6.11111"/></filter><filter id="fx27" x="-10%" y="-10%" width="120%" height="120%" filterUnits="userSpaceOnUse" primitiveUnits="userSpaceOnUse"><feComponentTransfer color-interpolation-filters="sRGB"><feFuncR type="discrete" tableValues="0 0"/><feFuncG type="discrete" tableValues="0 0"/><feFuncB type="discrete" tableValues="0 0"/><feFuncA type="linear" slope="0.4" intercept="0"/></feComponentTransfer><feGaussianBlur stdDeviation="6.11111 6.11111"/></filter></defs><g transform="translate(-471 298)"><g filter="url(#fx0)" transform="translate(573 1144)"><g><path d="M19.9999 198.92C19.9999 99.9673 100.217 19.7499 199.171 19.7499L915.829 19.7499C1014.78 19.7499 1095 99.9673 1095 198.92L1095 997.579C1095 1096.53 1014.78 1176.75 915.829 1176.75L199.171 1176.75C100.217 1176.75 19.9999 1096.53 19.9999 997.579Z" fill="#F2F2F2" fill-rule="evenodd"/></g></g><path d="M593 1329.17C593 1230.22 673.217 1150 772.171 1150L1488.83 1150C1587.78 1150 1668 1230.22 1668 1329.17L1668 2127.83C1668 2226.78 1587.78 2307 1488.83 2307L772.171 2307C673.217 2307 593 2226.78 593 2127.83Z" fill="#F2F2F2" fill-rule="evenodd"/><g filter="url(#fx1)" transform="translate(1935 1055)"><g><path d="M19.9999 212.587C19.9999 106.086 106.336 19.7501 212.837 19.7501L1280.16 19.7501C1386.66 19.7501 1473 106.086 1473 212.587L1473 983.913C1473 1090.41 1386.66 1176.75 1280.16 1176.75L212.837 1176.75C106.336 1176.75 19.9999 1090.41 19.9999 983.913Z" fill="#EADCF4" fill-rule="evenodd"/></g></g><path d="M1955 1253.84C1955 1147.34 2041.34 1061 2147.84 1061L3215.16 1061C3321.66 1061 3408 1147.34 3408 1253.84L3408 2025.16C3408 2131.66 3321.66 2218 3215.16 2218L2147.84 2218C2041.34 2218 1955 2131.66 1955 2025.16Z" fill="#EADCF4" fill-rule="evenodd"/><g filter="url(#fx2)" transform="translate(711 1055)"><g><path d="M20.0002 198.921C20.0002 99.9675 100.218 19.7501 199.171 19.7501L915.829 19.7501C1014.78 19.7501 1095 99.9675 1095 198.921L1095 997.579C1095 1096.53 1014.78 1176.75 915.829 1176.75L199.171 1176.75C100.218 1176.75 20.0002 1096.53 20.0002 997.579Z" fill="#F2F2F2" fill-rule="evenodd"/></g></g><path d="M731 1240.17C731 1141.22 811.218 1061 910.171 1061L1626.83 1061C1725.78 1061 1806 1141.22 1806 1240.17L1806 2038.83C1806 2137.78 1725.78 2218 1626.83 2218L910.171 2218C811.218 2218 731 2137.78 731 2038.83Z" fill="#F2F2F2" fill-rule="evenodd"/><g filter="url(#fx3)" transform="translate(888 38)"><g><path d="M19.9998 156.085C19.9998 80.7895 81.0392 19.75 156.335 19.75L2168.66 19.75C2243.96 19.75 2305 80.7895 2305 156.085L2305 701.415C2305 776.711 2243.96 837.75 2168.66 837.75L156.335 837.75C81.0392 837.75 19.9998 776.711 19.9998 701.415Z" fill="#EAF5E3" fill-rule="evenodd"/></g></g><path d="M908 180.335C908 105.039 969.039 44 1044.34 44L3056.66 44C3131.96 44 3193 105.039 3193 180.335L3193 725.665C3193 800.961 3131.96 862 3056.66 862L1044.34 862C969.039 862 908 800.961 908 725.665Z" fill="#EAF5E3" fill-rule="evenodd"/><g filter="url(#fx4)" transform="translate(827 1999)"><g><path d="M20 44.7506C20 30.9432 31.1931 19.7501 45.0005 19.7501L565 19.7501C578.807 19.7501 590 30.9432 590 44.7506L590 144.749C590 158.557 578.807 169.75 565 169.75L45.0005 169.75C31.1931 169.75 20 158.557 20 144.749Z" fill="#BDD7EE" fill-rule="evenodd"/></g></g><path d="M847 2030C847 2016.19 858.193 2005 872 2005L1392 2005C1405.81 2005 1417 2016.19 1417 2030L1417 2130C1417 2143.81 1405.81 2155 1392 2155L872 2155C858.193 2155 847 2143.81 847 2130Z" fill="#BDD7EE" fill-rule="evenodd"/><g filter="url(#fx5)" transform="translate(827 1786)"><g><path d="M20 44.7505C20 30.9431 31.1931 19.75 45.0005 19.75L565 19.75C578.807 19.75 590 30.9431 590 44.7505L590 144.749C590 158.557 578.807 169.75 565 169.75L45.0005 169.75C31.1931 169.75 20 158.557 20 144.749Z" fill="#BDD7EE" fill-rule="evenodd"/></g></g><path d="M847 1817C847 1803.19 858.193 1792 872 1792L1392 1792C1405.81 1792 1417 1803.19 1417 1817L1417 1917C1417 1930.81 1405.81 1942 1392 1942L872 1942C858.193 1942 847 1930.81 847 1917Z" fill="#BDD7EE" fill-rule="evenodd"/><g filter="url(#fx6)" transform="translate(1999 1108)"><g><path d="M19.9999 122.253C19.9999 65.6421 65.8919 19.7501 122.503 19.7501L1253.5 19.7501C1310.11 19.7501 1356 65.6421 1356 122.253L1356 532.247C1356 588.858 1310.11 634.75 1253.5 634.75L122.503 634.75C65.8919 634.75 19.9999 588.858 19.9999 532.247Z" fill="#BDD7EE" fill-rule="evenodd"/></g></g><path d="M2019 1216.5C2019 1159.89 2064.89 1114 2121.5 1114L3252.5 1114C3309.11 1114 3355 1159.89 3355 1216.5L3355 1626.5C3355 1683.11 3309.11 1729 3252.5 1729L2121.5 1729C2064.89 1729 2019 1683.11 2019 1626.5Z" fill="#BDD7EE" fill-rule="evenodd"/><g filter="url(#fx7)" transform="translate(2481 1798)"><g><path d="M20.0002 44.7507C20.0002 30.9432 31.1934 19.75 45.0009 19.75L566 19.75C579.807 19.75 591 30.9432 591 44.7507L591 144.749C591 158.557 579.807 169.75 566 169.75L45.0009 169.75C31.1934 169.75 20.0002 158.557 20.0002 144.749Z" fill="#BDD7EE" fill-rule="evenodd"/></g></g><path d="M2501 1829C2501 1815.19 2512.19 1804 2526 1804L3047 1804C3060.81 1804 3072 1815.19 3072 1829L3072 1929C3072 1942.81 3060.81 1954 3047 1954L2526 1954C2512.19 1954 2501 1942.81 2501 1929Z" fill="#BDD7EE" fill-rule="evenodd"/><g filter="url(#fx8)" transform="translate(2481 2023)"><g><path d="M20.0002 44.7508C20.0002 30.9433 31.1934 19.7501 45.0009 19.7501L566 19.7501C579.807 19.7501 591 30.9433 591 44.7508L591 144.749C591 158.557 579.807 169.75 566 169.75L45.0009 169.75C31.1934 169.75 20.0002 158.557 20.0002 144.749Z" fill="#BDD7EE" fill-rule="evenodd"/></g></g><path d="M2501 2054C2501 2040.19 2512.19 2029 2526 2029L3047 2029C3060.81 2029 3072 2040.19 3072 2054L3072 2154C3072 2167.81 3060.81 2179 3047 2179L2526 2179C2512.19 2179 2501 2167.81 2501 2154Z" fill="#BDD7EE" fill-rule="evenodd"/><g filter="url(#fx9)" transform="translate(827 1341)"><g><path d="M20 44.7506C20 30.9432 31.1931 19.7501 45.0005 19.7501L565 19.7501C578.807 19.7501 590 30.9432 590 44.7506L590 144.749C590 158.557 578.807 169.75 565 169.75L45.0005 169.75C31.1931 169.75 20 158.557 20 144.749Z" fill="#BDD7EE" fill-rule="evenodd"/></g></g><path d="M847 1372C847 1358.19 858.193 1347 872 1347L1392 1347C1405.81 1347 1417 1358.19 1417 1372L1417 1472C1417 1485.81 1405.81 1497 1392 1497L872 1497C858.193 1497 847 1485.81 847 1472Z" fill="#BDD7EE" fill-rule="evenodd"/><g filter="url(#fx10)" transform="translate(2253 1534)"><g><path d="M19.9998 44.7506C19.9998 30.9432 31.1929 19.75 45.0003 19.75L451.999 19.75C465.807 19.75 477 30.9432 477 44.7506L477 144.749C477 158.557 465.807 169.75 451.999 169.75L45.0003 169.75C31.1929 169.75 19.9998 158.557 19.9998 144.749Z" fill="#FFE699" fill-rule="evenodd"/></g></g><path d="M2273 1565C2273 1551.19 2284.19 1540 2298 1540L2705 1540C2718.81 1540 2730 1551.19 2730 1565L2730 1665C2730 1678.81 2718.81 1690 2705 1690L2298 1690C2284.19 1690 2273 1678.81 2273 1665Z" fill="#FFE699" fill-rule="evenodd"/><g filter="url(#fx11)" transform="translate(2823 1534)"><g><path d="M20.0002 44.7502C20.0002 30.943 31.1932 19.75 45.0004 19.75L453 19.75C466.807 19.75 478 30.943 478 44.7502L478 144.75C478 158.557 466.807 169.75 453 169.75L45.0004 169.75C31.1932 169.75 20.0002 158.557 20.0002 144.75Z" fill="#FFE699" fill-rule="evenodd"/></g></g><path d="M2843 1565C2843 1551.19 2854.19 1540 2868 1540L3276 1540C3289.81 1540 3301 1551.19 3301 1565L3301 1665C3301 1678.81 3289.81 1690 3276 1690L2868 1690C2854.19 1690 2843 1678.81 2843 1665Z" fill="#FFE699" fill-rule="evenodd"/><g filter="url(#fx12)" transform="translate(2823 1391)"><g><path d="M20.0002 33.9168C20.0002 26.0927 26.3429 19.75 34.167 19.75L463.833 19.75C471.657 19.75 478 26.0927 478 33.9168L478 90.5831C478 98.4072 471.657 104.75 463.833 104.75L34.167 104.75C26.3429 104.75 20.0002 98.4072 20.0002 90.5831Z" fill="#FFE699" fill-rule="evenodd"/></g></g><path d="M2843 1411.17C2843 1403.34 2849.34 1397 2857.17 1397L3286.83 1397C3294.66 1397 3301 1403.34 3301 1411.17L3301 1467.83C3301 1475.66 3294.66 1482 3286.83 1482L2857.17 1482C2849.34 1482 2843 1475.66 2843 1467.83Z" fill="#FFE699" fill-rule="evenodd"/><g filter="url(#fx13)" transform="translate(2343 1154)"><g><path d="M20 36.0838C20 27.0629 27.3128 19.7501 36.3336 19.7501L862.666 19.7501C871.687 19.7501 879 27.0629 879 36.0838L879 101.416C879 110.437 871.687 117.75 862.666 117.75L36.3336 117.75C27.3128 117.75 20 110.437 20 101.416Z" fill="#FFE699" fill-rule="evenodd"/></g></g><path d="M2363 1176.33C2363 1167.31 2370.31 1160 2379.33 1160L3205.67 1160C3214.69 1160 3222 1167.31 3222 1176.33L3222 1241.67C3222 1250.69 3214.69 1258 3205.67 1258L2379.33 1258C2370.31 1258 2363 1250.69 2363 1241.67Z" fill="#FFE699" fill-rule="evenodd"/><g filter="url(#fx14)" transform="translate(827 925)"><g><path d="M20 37.5837C20 27.7343 27.9844 19.7499 37.8337 19.7499L572.166 19.7499C582.016 19.7499 590 27.7343 590 37.5837L590 108.916C590 118.766 582.016 126.75 572.166 126.75L37.8337 126.75C27.9844 126.75 20 118.766 20 108.916Z" fill="#F4B183" fill-rule="evenodd"/></g></g><path d="M847 948.834C847 938.984 854.984 931 864.834 931L1399.17 931C1409.02 931 1417 938.984 1417 948.834L1417 1020.17C1417 1030.02 1409.02 1038 1399.17 1038L864.834 1038C854.984 1038 847 1030.02 847 1020.17Z" fill="#F4B183" fill-rule="evenodd"/><g filter="url(#fx15)" transform="translate(2108 926)"><g><path d="M20.0002 37.5837C20.0002 27.7343 27.9847 19.7499 37.8339 19.7499L572.167 19.7499C582.016 19.7499 590 27.7343 590 37.5837L590 108.916C590 118.766 582.016 126.75 572.167 126.75L37.8339 126.75C27.9847 126.75 20.0002 118.766 20.0002 108.916Z" fill="#F4B183" fill-rule="evenodd"/></g></g><path d="M2128 949.834C2128 939.984 2135.98 932 2145.83 932L2680.17 932C2690.02 932 2698 939.984 2698 949.834L2698 1021.17C2698 1031.02 2690.02 1039 2680.17 1039L2145.83 1039C2135.98 1039 2128 1031.02 2128 1021.17Z" fill="#F4B183" fill-rule="evenodd"/><g filter="url(#fx16)" transform="translate(2866 926)"><g><path d="M20.0002 37.5837C20.0002 27.7343 27.9847 19.7499 37.834 19.7499L573.167 19.7499C583.016 19.7499 591 27.7343 591 37.5837L591 108.916C591 118.766 583.016 126.75 573.167 126.75L37.834 126.75C27.9847 126.75 20.0002 118.766 20.0002 108.916Z" fill="#F4B183" fill-rule="evenodd"/></g></g><path d="M2886 949.834C2886 939.984 2893.98 932 2903.83 932L3439.17 932C3449.02 932 3457 939.984 3457 949.834L3457 1021.17C3457 1031.02 3449.02 1039 3439.17 1039L2903.83 1039C2893.98 1039 2886 1031.02 2886 1021.17Z" fill="#F4B183" fill-rule="evenodd"/><g filter="url(#fx17)" transform="translate(967 659)"><g><path d="M19.9999 44.7508C19.9999 30.9434 31.193 19.7502 45.0005 19.7502L452 19.7502C465.807 19.7502 477 30.9434 477 44.7508L477 144.749C477 158.557 465.807 169.75 452 169.75L45.0005 169.75C31.193 169.75 19.9999 158.557 19.9999 144.749Z" fill="#BDD7EE" fill-rule="evenodd"/></g></g><path d="M987 690.001C987 676.193 998.193 665 1012 665L1419 665C1432.81 665 1444 676.193 1444 690.001L1444 789.999C1444 803.807 1432.81 815 1419 815L1012 815C998.193 815 987 803.807 987 789.999Z" fill="#BDD7EE" fill-rule="evenodd"/><g filter="url(#fx18)" transform="translate(1503 659)"><g><path d="M20.0001 44.7507C20.0001 30.9433 31.1932 19.7502 45.0007 19.7502L451.999 19.7502C465.807 19.7502 477 30.9433 477 44.7507L477 144.749C477 158.556 465.807 169.75 451.999 169.75L45.0007 169.75C31.1932 169.75 20.0001 158.556 20.0001 144.749Z" fill="#BDD7EE" fill-rule="evenodd"/></g></g><path d="M1523 690.001C1523 676.193 1534.19 665 1548 665L1955 665C1968.81 665 1980 676.193 1980 690.001L1980 789.999C1980 803.806 1968.81 815 1955 815L1548 815C1534.19 815 1523 803.806 1523 789.999Z" fill="#BDD7EE" fill-rule="evenodd"/><g filter="url(#fx19)" transform="translate(2039 658)"><g><path d="M20 44.7507C20 30.9433 31.1931 19.7501 45.0005 19.7501L451.999 19.7501C465.807 19.7501 477 30.9433 477 44.7507L477 144.749C477 158.556 465.807 169.749 451.999 169.749L45.0005 169.749C31.1931 169.749 20 158.556 20 144.749Z" fill="#BDD7EE" fill-rule="evenodd"/></g></g><path d="M2059 689.001C2059 675.193 2070.19 664 2084 664L2491 664C2504.81 664 2516 675.193 2516 689.001L2516 788.999C2516 802.806 2504.81 814 2491 814L2084 814C2070.19 814 2059 802.806 2059 788.999Z" fill="#BDD7EE" fill-rule="evenodd"/><g filter="url(#fx20)" transform="translate(2575 660)"><g><path d="M20 44.75C20 30.9428 31.193 19.7498 45.0002 19.7498L453 19.7498C466.807 19.7498 478 30.9428 478 44.75L478 144.749C478 158.557 466.807 169.75 453 169.75L45.0002 169.75C31.193 169.75 20 158.557 20 144.749Z" fill="#BDD7EE" fill-rule="evenodd"/></g></g><path d="M2595 691C2595 677.193 2606.19 666 2620 666L3028 666C3041.81 666 3053 677.193 3053 691L3053 790.999C3053 804.807 3041.81 816 3028 816L2620 816C2606.19 816 2595 804.807 2595 790.999Z" fill="#BDD7EE" fill-rule="evenodd"/><path d="M1444 573.5C1444 548.923 1464.82 529 1490.5 529 1516.18 529 1537 548.923 1537 573.5 1537 598.077 1516.18 618 1490.5 618 1464.82 618 1444 598.077 1444 573.5Z" stroke="#172C51" stroke-width="13.75" stroke-miterlimit="8" fill="none" fill-rule="evenodd"/><path d="M1490 529 1490 617.747" stroke="#000000" stroke-width="13.75" stroke-miterlimit="8" fill="none" fill-rule="evenodd"/><path d="M1444 573 1536.81 573" stroke="#000000" stroke-width="13.75" stroke-miterlimit="8" fill="none" fill-rule="evenodd"/><g filter="url(#fx21)" transform="translate(1243 301)"><g><path d="M19.9999 44.7506C19.9999 30.9431 31.193 19.75 45.0005 19.75L452 19.75C465.807 19.75 477 30.9431 477 44.7506L477 144.749C477 158.557 465.807 169.75 452 169.75L45.0005 169.75C31.193 169.75 19.9999 158.557 19.9999 144.749Z" fill="#BDD7EE" fill-rule="evenodd"/></g></g><path d="M1263 332.001C1263 318.193 1274.19 307 1288 307L1695 307C1708.81 307 1720 318.193 1720 332.001L1720 431.999C1720 445.807 1708.81 457 1695 457L1288 457C1274.19 457 1263 445.807 1263 431.999Z" fill="#BDD7EE" fill-rule="evenodd"/><g filter="url(#fx22)" transform="translate(2315 299)"><g><path d="M20 44.7501C20 30.9429 31.193 19.7499 45.0002 19.7499L453 19.7499C466.807 19.7499 478 30.9429 478 44.7501L478 144.749C478 158.557 466.807 169.75 453 169.75L45.0002 169.75C31.193 169.75 20 158.557 20 144.749Z" fill="#BDD7EE" fill-rule="evenodd"/></g></g><path d="M2335 330C2335 316.193 2346.19 305 2360 305L2768 305C2781.81 305 2793 316.193 2793 330L2793 429.999C2793 443.807 2781.81 455 2768 455L2360 455C2346.19 455 2335 443.807 2335 429.999Z" fill="#BDD7EE" fill-rule="evenodd"/><g filter="url(#fx23)" transform="translate(1243 82)"><g><path d="M19.9999 44.7506C19.9999 30.9432 31.193 19.75 45.0005 19.75L452 19.75C465.807 19.75 477 30.9432 477 44.7506L477 144.749C477 158.557 465.807 169.75 452 169.75L45.0005 169.75C31.193 169.75 19.9999 158.557 19.9999 144.749Z" fill="#BDD7EE" fill-rule="evenodd"/></g></g><path d="M1263 113.001C1263 99.1932 1274.19 88 1288 88L1695 88C1708.81 88 1720 99.1932 1720 113.001L1720 212.999C1720 226.807 1708.81 238 1695 238L1288 238C1274.19 238 1263 226.807 1263 212.999Z" fill="#BDD7EE" fill-rule="evenodd"/><path d="M2516 578.5C2516 553.923 2536.82 534 2562.5 534 2588.18 534 2609 553.923 2609 578.5 2609 603.077 2588.18 623 2562.5 623 2536.82 623 2516 603.077 2516 578.5Z" stroke="#172C51" stroke-width="13.75" stroke-miterlimit="8" fill="none" fill-rule="evenodd"/><path d="M2563 534 2563 622.747" stroke="#000000" stroke-width="13.75" stroke-miterlimit="8" fill="none" fill-rule="evenodd"/><path d="M2516 579 2608.81 579" stroke="#000000" stroke-width="13.75" stroke-miterlimit="8" fill="none" fill-rule="evenodd"/><g filter="url(#fx24)" transform="translate(2318 82)"><g><path d="M19.9998 44.7506C19.9998 30.9432 31.1929 19.75 45.0003 19.75L451.999 19.75C465.807 19.75 477 30.9432 477 44.7506L477 144.749C477 158.557 465.807 169.75 451.999 169.75L45.0003 169.75C31.1929 169.75 19.9998 158.557 19.9998 144.749Z" fill="#BDD7EE" fill-rule="evenodd"/></g></g><path d="M2338 113.001C2338 99.1932 2349.19 88 2363 88L2770 88C2783.81 88 2795 99.1932 2795 113.001L2795 212.999C2795 226.807 2783.81 238 2770 238L2363 238C2349.19 238 2338 226.807 2338 212.999Z" fill="#BDD7EE" fill-rule="evenodd"/><g filter="url(#fx25)" transform="translate(1141 -127)"><g><path d="M19.9999 37.7501C19.9999 27.8089 28.0588 19.75 37.9999 19.75L660 19.75C669.941 19.75 678 27.8089 678 37.7501L678 109.75C678 119.691 669.941 127.75 660 127.75L37.9999 127.75C28.0588 127.75 19.9999 119.691 19.9999 109.75Z" fill="#F4B183" fill-rule="evenodd"/></g></g><path d="M1161-103C1161-112.941 1169.06-121 1179-121L1801-121C1810.94-121 1819-112.941 1819-103L1819-31.0002C1819-21.059 1810.94-13.0001 1801-13.0001L1179-13.0001C1169.06-13.0001 1161-21.059 1161-31.0002Z" fill="#F4B183" fill-rule="evenodd"/><path d="M5.15625-2.94788e-05 5.15643 32.1876-5.15607 32.1877-5.15625 2.94788e-05ZM0.00018402 32.1876 25.7813 11.5625 0.000360892 63.1251-25.7812 11.5628Z" transform="matrix(1 0 0 -1 1132 2005.12)"/><path d="M5.15625-6.29685e-06 5.15657 264.584-5.15593 264.584-5.15625 6.29685e-06ZM0.000323111 264.584 25.7815 243.959 0.000360892 295.521-25.781 243.959Z" transform="matrix(1 0 0 -1 1132 1792.52)"/><path d="M5.15625-6.03522e-06 5.15657 277.395-5.15593 277.395-5.15625 6.03522e-06ZM0.000324681 277.395 25.7816 256.77 0.000360892 308.332-25.7809 256.77Z" transform="matrix(1 0 0 -1 1132 1346.33)"/><path d="M5.15625-2.48285e-05 5.15646 44.0108-5.15604 44.0108-5.15625 2.48285e-05ZM0.000211922 44.0108 25.7814 23.3857 0.000360892 74.9483-25.7811 23.386Z" transform="matrix(1 0 0 -1 2787 2028.95)"/><path d="M3066.84 1540.49 3066.84 1512.94 3077.16 1512.94 3077.16 1540.49ZM3072 1512.94 3046.22 1533.56 3072 1482 3097.78 1533.56Z"/><path d="M1891.84 2330.37 1891.84 2276.39 2786.5 2276.39 2781.35 2281.55 2781.35 2209.94 2791.66 2209.94 2791.66 2286.7 1897 2286.7 1902.16 2281.55 1902.16 2330.37ZM2786.5 2209.94 2760.72 2230.56 2786.5 2179 2812.29 2230.56Z"/><path d="M0-5.15625 54.1369-5.15625 54.1369 765.079 48.9806 759.923 143.769 759.923 143.769 770.235 43.8244 770.235 43.8244 0 48.9806 5.15625 0 5.15625ZM143.769 765.079 123.144 739.298 174.706 765.079 123.144 790.86Z" transform="matrix(-1.83697e-16 -1 -1 1.83697e-16 1897.08 2329.71)"/><path d="M0-5.15625 1415.07-5.15625 1415.07 682.005 1409.92 676.849 1484.24 676.849 1484.24 687.162 1404.76 687.162 1404.76 0 1409.92 5.15625 0 5.15625ZM1484.24 682.005 1463.61 656.224 1515.17 682.005 1463.61 707.787Z" transform="matrix(-1.83697e-16 -1 -1 1.83697e-16 1897.01 2330.17)"/><path d="M1891.84 2330.17 1891.84 916.522 2287.49 916.522 2282.34 921.678 2282.34 844.937 2292.65 844.937 2292.65 926.835 1897 926.835 1902.16 921.678 1902.16 2330.17ZM2287.49 844.937 2261.71 865.562 2287.49 814 2313.28 865.562Z"/><path d="M0-5.15625 33.6373-5.15625 33.6373 285.312 28.4811 280.156 82.3022 280.156 82.3022 290.469 23.3248 290.469 23.3248 0 28.4811 5.15625 0 5.15625ZM82.3022 285.312 61.6772 259.531 113.24 285.312 61.6772 311.094Z" transform="matrix(-1.83697e-16 -1 -1 1.83697e-16 2786.31 1803.24)"/><path d="M2781.84 1803.24 2781.84 1769.6 3072.31 1769.6 3067.16 1774.76 3067.16 1720.94 3077.47 1720.94 3077.47 1779.91 2787 1779.91 2792.16 1774.76 2792.16 1803.24ZM3072.31 1720.94 3046.53 1741.56 3072.31 1690 3098.09 1741.56Z"/><path d="M2495.84 1540.41 2495.84 1394.05 2792.28 1394.05 2787.12 1399.21 2787.12 1288.94 2797.43 1288.94 2797.43 1404.36 2501 1404.36 2506.16 1399.21 2506.16 1540.41ZM2792.28 1288.94 2766.5 1309.56 2792.28 1258 2818.06 1309.56Z"/><path d="M0-5.15625 52.5578-5.15625 52.5578 279.346 47.4016 274.19 108.611 274.19 108.611 284.502 42.2453 284.502 42.2453 0 47.4016 5.15625 0 5.15625ZM108.611 279.346 87.9856 253.565 139.548 279.346 87.9856 305.127Z" transform="matrix(-1.83697e-16 -1 -1 1.83697e-16 3072.35 1397.55)"/><path d="M0-5.15625 48.7191-5.15625 48.7191 379.508 43.5629 374.351 89.7492 374.351 89.7492 384.664 38.4066 384.664 38.4066 0 43.5629 5.15625 0 5.15625ZM89.7492 379.508 69.1242 353.726 120.687 379.508 69.1242 405.289Z" transform="matrix(-1.83697e-16 -1 -1 1.83697e-16 2792.51 1159.69)"/><path d="M2787.84 1159.69 2787.84 1110.97 3172.03 1110.97 3166.88 1116.12 3166.88 1069.94 3177.19 1069.94 3177.19 1121.28 2793 1121.28 2798.16 1116.12 2798.16 1159.69ZM3172.03 1069.94 3146.25 1090.56 3172.03 1039 3197.82 1090.56Z"/><path d="M2407.84 931.523 2407.84 883.954 2823.78 883.954 2818.63 889.11 2818.63 846.938 2828.94 846.938 2828.94 894.266 2413 894.266 2418.16 889.11 2418.16 931.523ZM2823.78 846.938 2798 867.563 2823.78 816 2849.56 867.563Z"/><path d="M0-5.15625 48.2715-5.15625 48.2715 661.718 43.1153 656.562 85.9909 656.562 85.9909 666.874 37.959 666.874 37.959 0 43.1153 5.15625 0 5.15625ZM85.9909 661.718 65.3659 635.937 116.928 661.718 65.3659 687.499Z" transform="matrix(-1.83697e-16 -1 -1 1.83697e-16 2412.72 931.929)"/><path d="M0-5.15625 92.5521-5.15625 92.5521 183.906 82.2396 183.906 82.2396 0 87.3959 5.15625 0 5.15625ZM87.3959 183.906 113.177 163.281 87.3959 214.844 61.6146 163.281Z" transform="matrix(-1.83697e-16 -1 -1 1.83697e-16 2823.84 666.396)"/><path d="M2282.84 664 2282.84 573.844 2485.66 573.844 2485.66 584.156 2288 584.156 2293.16 579 2293.16 664ZM2485.66 579 2465.03 553.219 2516.59 579 2465.03 604.781Z"/><path d="M0-5.15625 96.5089-5.15625 96.5089 183.906 86.1964 183.906 86.1964 0 91.3527 5.15625 0 5.15625ZM91.3527 183.906 117.134 163.281 91.3527 214.844 65.5714 163.281Z" transform="matrix(-1.83697e-16 -1 -1 1.83697e-16 1751.84 664.353)"/><path d="M1209.84 664.353 1209.84 567.844 1412.66 567.844 1412.66 578.156 1215 578.156 1220.16 573 1220.16 664.353ZM1412.66 573 1392.03 547.219 1443.59 573 1392.03 598.781Z"/><path d="M5.15486-0.119715 6.10787 40.9163-4.20185 41.1557-5.15486 0.119715ZM0.953005 41.036 26.2484 19.818 1.67129 71.9652-25.3002 21.0152Z" transform="matrix(1 0 0 -1 1490 528.965)"/><path d="M1486.84 306.836 1486.84 268.937 1497.16 268.937 1497.16 306.836ZM1492 268.937 1466.22 289.562 1492 238 1517.78 289.562Z"/><path d="M1486.52 88.6226 1485.35 18.0181 1495.66 17.8484 1496.83 88.4529ZM1490.51 17.9332 1465.07 38.9797 1490-13.0001 1516.63 38.1312Z"/><path d="M5.15546-0.0900298 5.9975 48.1285-4.31342 48.3085-5.15546 0.0900298ZM0.842039 48.2185 26.2592 27.1465 1.38222 79.1513-25.2954 28.0468Z" transform="matrix(1 0 0 -1 2563 534.151)"/><path d="M5.15383-0.15804 6.26051 35.9317-4.04715 36.2477-5.15383 0.15804ZM1.10668 36.0897 26.2437 14.6842 2.05492 67.0127-25.2946 16.2646Z" transform="matrix(1 0 0 -1 2564 305.013)"/><path d="M5.15542-0.0925041 6.44239 71.6326-3.86845 71.8176-5.15542 0.0925041ZM1.28697 71.7251 26.6941 50.6409 1.84199 102.658-24.8601 51.566Z" transform="matrix(1 0 0 -1 2566 88.6575)"/><text font-family="DengXian,DengXian_MSFontService,sans-serif" font-weight="700" font-size="73" transform="matrix(1 0 0 1 3050.09 1009)">★</text><text font-family="Times New Roman,Times New Roman_MSFontService,sans-serif" font-weight="700" font-size="73" transform="matrix(1 0 0 1 3123.43 1009)">Policy</text><text font-family="Times New Roman,Times New Roman_MSFontService,sans-serif" font-weight="700" font-size="73" transform="matrix(1 0 0 1 2163.16 1011)">Sampled Actions</text><text font-family="Times New Roman,Times New Roman_MSFontService,sans-serif" font-weight="700" font-size="73" transform="matrix(1 0 0 1 953.788 1007)">State Value</text><text font-family="Times New Roman,Times New Roman_MSFontService,sans-serif" font-weight="700" font-size="73" transform="matrix(1 0 0 1 1188.13 -42)">State Action Value 1</text><g filter="url(#fx26)" transform="translate(2219 -128)"><g><path d="M19.9998 37.7501C19.9998 27.8089 28.0586 19.75 37.9998 19.75L660 19.75C669.941 19.75 678 27.8089 678 37.7501L678 109.75C678 119.691 669.941 127.75 660 127.75L37.9998 127.75C28.0586 127.75 19.9998 119.691 19.9998 109.75Z" fill="#F4B183" fill-rule="evenodd"/></g></g><path d="M2239-104C2239-113.941 2247.06-122 2257-122L2879-122C2888.94-122 2897-113.941 2897-104L2897-32.0002C2897-22.059 2888.94-14.0001 2879-14.0001L2257-14.0001C2247.06-14.0001 2239-22.059 2239-32.0002Z" fill="#F4B183" fill-rule="evenodd"/><text font-family="Times New Roman,Times New Roman_MSFontService,sans-serif" font-weight="700" font-size="73" transform="matrix(1 0 0 1 2255.16 -40)">State Action Value 2</text><text font-family="Times New Roman,Times New Roman_MSFontService,sans-serif" font-weight="700" font-size="73" transform="matrix(1 0 0 1 1036.55 1448)">Dense</text><text font-family="Times New Roman,Times New Roman_MSFontService,sans-serif" font-weight="700" font-size="73" transform="matrix(1 0 0 1 2399.75 1604)">Dense</text><text font-family="Times New Roman,Times New Roman_MSFontService,sans-serif" font-weight="700" font-size="55" transform="matrix(1 0 0 1 2347.04 1674)">Policy Mean</text><text font-family="Times New Roman,Times New Roman_MSFontService,sans-serif" font-weight="700" font-size="73" transform="matrix(1 0 0 1 2978.92 1602)">Dense</text><text font-family="Times New Roman,Times New Roman_MSFontService,sans-serif" font-weight="700" font-size="55" transform="matrix(1 0 0 1 2901.3 1672)">Log Policy Std</text><text font-family="Times New Roman,Times New Roman_MSFontService,sans-serif" font-weight="700" font-size="73" transform="matrix(1 0 0 1 2888.81 1461)">Exponetiate</text><text font-family="Times New Roman,Times New Roman_MSFontService,sans-serif" font-weight="700" font-size="73" transform="matrix(1 0 0 1 2464.49 1230)">Guassion</text><text font-family="Times New Roman,Times New Roman_MSFontService,sans-serif" font-weight="700" font-size="73" transform="matrix(1 0 0 1 2772.71 1230)">Distribution</text><text font-family="Times New Roman,Times New Roman_MSFontService,sans-serif" font-weight="700" font-size="73" transform="matrix(1 0 0 1 1399.15 186)">Dense</text><text font-family="Times New Roman,Times New Roman_MSFontService,sans-serif" font-weight="700" font-size="73" transform="matrix(1 0 0 1 2471.39 185)">Dense</text><text font-family="Times New Roman,Times New Roman_MSFontService,sans-serif" font-weight="700" font-size="73" transform="matrix(1 0 0 1 1307.31 413)">Middleware</text><text font-family="Times New Roman,Times New Roman_MSFontService,sans-serif" font-weight="700" font-size="73" transform="matrix(1 0 0 1 2376.1 415)">Middleware</text><text font-family="Times New Roman,Times New Roman_MSFontService,sans-serif" font-weight="700" font-size="73" transform="matrix(1 0 0 1 946.707 1896)">Middleware</text><text font-family="Times New Roman,Times New Roman_MSFontService,sans-serif" font-weight="700" font-size="73" transform="matrix(1 0 0 1 2597.16 1911)">Middleware</text><text font-family="Times New Roman,Times New Roman_MSFontService,sans-serif" font-weight="700" font-size="73" transform="matrix(1 0 0 1 878.691 2110)">Input Embedder</text><text font-family="Times New Roman,Times New Roman_MSFontService,sans-serif" font-weight="700" font-size="73" transform="matrix(1 0 0 1 2530.81 2129)">Input Embedder</text><text font-family="Times New Roman,Times New Roman_MSFontService,sans-serif" font-weight="700" font-size="64" transform="matrix(1 0 0 1 1138.66 724)">Input </text><text font-family="Times New Roman,Times New Roman_MSFontService,sans-serif" font-weight="700" font-size="64" transform="matrix(1 0 0 1 1070.78 801)">Embedder</text><text font-family="Times New Roman,Times New Roman_MSFontService,sans-serif" font-weight="700" font-size="64" transform="matrix(1 0 0 1 1670.87 725)">Input </text><text font-family="Times New Roman,Times New Roman_MSFontService,sans-serif" font-weight="700" font-size="64" transform="matrix(1 0 0 1 1602.99 802)">Embedder</text><text font-family="Times New Roman,Times New Roman_MSFontService,sans-serif" font-weight="700" font-size="64" transform="matrix(1 0 0 1 2215.48 722)">Input </text><text font-family="Times New Roman,Times New Roman_MSFontService,sans-serif" font-weight="700" font-size="64" transform="matrix(1 0 0 1 2147.6 799)">Embedder</text><text font-family="Times New Roman,Times New Roman_MSFontService,sans-serif" font-weight="700" font-size="64" transform="matrix(1 0 0 1 2756.42 727)">Input </text><text font-family="Times New Roman,Times New Roman_MSFontService,sans-serif" font-weight="700" font-size="64" transform="matrix(1 0 0 1 2688.54 804)">Embedder</text><text font-family="Times New Roman,Times New Roman_MSFontService,sans-serif" font-weight="700" font-size="92" transform="matrix(1 0 0 1 1564.97 1601)">V</text><text font-family="Times New Roman,Times New Roman_MSFontService,sans-serif" font-weight="700" font-size="92" transform="matrix(1 0 0 1 1427.47 1711)">Network</text><text font-family="Times New Roman,Times New Roman_MSFontService,sans-serif" font-weight="700" font-size="92" transform="matrix(1 0 0 1 2107.28 2029)">Policy</text><text font-family="Times New Roman,Times New Roman_MSFontService,sans-serif" font-weight="700" font-size="92" transform="matrix(1 0 0 1 2056.02 2139)">Network</text><text font-family="Times New Roman,Times New Roman_MSFontService,sans-serif" font-weight="700" font-size="92" transform="matrix(1 0 0 1 2079.59 1382)">SAC</text><text font-family="Times New Roman,Times New Roman_MSFontService,sans-serif" font-weight="700" font-size="92" transform="matrix(1 0 0 1 2067.29 1492)">Head</text><text font-family="Times New Roman,Times New Roman_MSFontService,sans-serif" font-weight="700" font-size="92" transform="matrix(1 0 0 1 2973.69 264)">Q</text><text font-family="Times New Roman,Times New Roman_MSFontService,sans-serif" font-weight="700" font-size="92" transform="matrix(1 0 0 1 2838.48 374)">Network</text><path d="M0.0637185-5.15586 20.7744-4.8999 31.1162-4.52442 30.7421 5.78129 20.4619 5.40804 20.5853 5.41105-0.0637185 5.15586ZM41.541-4.14226 61.666-2.94466 72.524-2.04896 71.6762 8.22863 60.877 7.33777 60.9946 7.34612 40.9285 6.15203ZM82.9173-1.15767 100.619 0.715699 113.769 2.42762 112.438 12.6538 99.3488 10.9499 99.4718 10.9644 81.832 9.09755ZM124.107 3.90802 136.366 5.82496 152.646 8.84521 154.878 9.33457 152.67 19.4078 150.519 18.9363 150.683 18.9695 134.557 15.9778 134.701 16.0024 122.514 14.0967ZM164.951 11.5431 167.633 12.131 174.639 13.8756 181.25 15.673 187.472 17.5265 193.288 19.4345 195.35 20.1846 191.825 29.8759 189.84 29.1538 189.995 29.2075 184.325 27.3472 184.46 27.3895 178.365 25.574 178.485 25.608 171.987 23.8414 172.093 23.8692 165.211 22.1555 165.353 22.1886 162.743 21.6163ZM205.312 24.1843 208.155 25.4939 212.213 27.6442 215.812 29.8859 218.946 32.2562 221.605 34.819 223.741 37.6718 225.212 40.9092 225.744 44.3776 225.132 49.7635 224.224 52.4829 214.442 49.2168 215.179 47.0105 214.947 48.0613 215.42 43.8968 215.447 45.2609 215.127 43.1766 215.53 44.5286 214.584 42.4484 215.15 43.4049 213.599 41.3329 214.148 41.9549 212.011 39.895 212.479 40.2953 209.777 38.2518 210.161 38.5155 206.913 36.4923 207.226 36.6722 203.453 34.6734 203.71 34.8004 200.998 33.5509ZM218.368 62.8637 217.37 64.1804 213.227 68.4369 208.447 72.4292 203.091 76.1536 197.214 79.5979 191.693 82.336 187.111 73.0972 192.471 70.4391 192.155 70.61 197.704 67.3577 197.367 67.5727 202.372 64.0924 202.011 64.3683 206.412 60.6925 206.022 61.0536 209.758 57.2149 209.346 57.6948 210.153 56.6308ZM181.546 86.4615 176.853 88.0947 164.704 90.72 162.526 80.6401 174.367 78.0815 173.761 78.2516 178.157 76.722ZM170.696 100.368 138.043 88.9582 166.763 69.6813Z" transform="matrix(-1 1.22465e-16 1.22465e-16 1 731.043 1640)"/><text font-family="Times New Roman,Times New Roman_MSFontService,sans-serif" font-weight="700" font-size="64" transform="matrix(-1.83697e-16 -1 1 -1.83697e-16 688.768 2208)">Target Network</text><text font-family="Times New Roman,Times New Roman_MSFontService,sans-serif" font-weight="700" font-size="64" transform="matrix(1 0 0 1 586.056 1465)">Polyak </text><text font-family="Times New Roman,Times New Roman_MSFontService,sans-serif" font-weight="700" font-size="64" transform="matrix(1 0 0 1 540.017 1542)">Averaging</text><path d="M677.442 1587.57 696.129 1587.57 694.785 1593.39 685.098 1593.39 681.598 1608.32C681.202 1610.01 681.004 1611.37 681.004 1612.39 681.004 1613.2 681.14 1613.76 681.41 1614.07 681.681 1614.39 682.067 1614.54 682.567 1614.54 683.275 1614.54 684.025 1614.24 684.817 1613.62 685.608 1613.01 686.629 1611.97 687.879 1610.51L690.129 1612.76C688.358 1614.84 686.567 1616.42 684.754 1617.48 682.942 1618.54 680.962 1619.07 678.817 1619.07 676.671 1619.07 675.098 1618.53 674.098 1617.45 673.098 1616.37 672.598 1614.73 672.598 1612.54 672.598 1611.31 672.827 1609.68 673.285 1607.64L673.504 1606.7C673.942 1604.84 674.52 1602.65 675.238 1600.11 675.957 1597.56 676.64 1595.41 677.285 1593.64L677.129 1593.39 674.91 1593.39C673.827 1593.39 672.936 1593.48 672.238 1593.67 671.541 1593.86 670.858 1594.18 670.192 1594.64 669.525 1595.09 668.692 1595.86 667.692 1596.92L665.067 1594.57C666.796 1592.49 668.218 1590.98 669.332 1590.04 670.447 1589.11 671.587 1588.46 672.754 1588.11 673.921 1587.75 675.483 1587.57 677.442 1587.57Z" fill-rule="evenodd"/><text fill="#000000" fill-opacity="0" font-family="Arial,Arial_MSFontService,sans-serif" font-size="31.5" x="665.067" y="1615.14">𝝉</text><g filter="url(#fx27)" transform="translate(1480 2324)"><g><path d="M20.0001 37.7507C20.0001 27.8092 28.0593 19.75 38.0008 19.75L767.999 19.75C777.941 19.75 786 27.8092 786 37.7507L786 109.749C786 119.691 777.941 127.75 767.999 127.75L38.0008 127.75C28.0593 127.75 20.0001 119.691 20.0001 109.749Z" fill="#F4B183" fill-rule="evenodd"/></g></g><path d="M1500 2348C1500 2338.06 1508.06 2330 1518 2330L2248 2330C2257.94 2330 2266 2338.06 2266 2348L2266 2420C2266 2429.94 2257.94 2438 2248 2438L1518 2438C1508.06 2438 1500 2429.94 1500 2420Z" fill="#F4B183" fill-rule="evenodd"/><text font-family="Times New Roman,Times New Roman_MSFontService,sans-serif" font-weight="700" font-size="73" transform="matrix(1 0 0 1 1541.32 2409)">Stacking</text><text font-family="Times New Roman,Times New Roman_MSFontService,sans-serif" font-weight="700" font-size="73" transform="matrix(1 0 0 1 1832.94 2409)">Observation</text></g></svg>